<?xml version="1.0" encoding="UTF-8" standalone="no"?>
<svg
   xmlns:dc="http://purl.org/dc/elements/1.1/"
   xmlns:cc="http://creativecommons.org/ns#"
   xmlns:rdf="http://www.w3.org/1999/02/22-rdf-syntax-ns#"
   xmlns:svg="http://www.w3.org/2000/svg"
   xmlns="http://www.w3.org/2000/svg"
   xmlns:sodipodi="http://sodipodi.sourceforge.net/DTD/sodipodi-0.dtd"
   xmlns:inkscape="http://www.inkscape.org/namespaces/inkscape"
   id="svg2"
   sodipodi:version="0.32"
   inkscape:version="0.46"
   width="800"
   height="480"
   sodipodi:docname="door5.svg"
   inkscape:output_extension="org.inkscape.output.svg.inkscape"
   version="1.0">
  <metadata
     id="metadata9">
    <rdf:RDF>
      <cc:Work
         rdf:about="">
        <dc:format>image/svg+xml</dc:format>
        <dc:type
           rdf:resource="http://purl.org/dc/dcmitype/StillImage" />
      </cc:Work>
    </rdf:RDF>
  </metadata>
  <defs
     id="defs7">
    <inkscape:perspective
       sodipodi:type="inkscape:persp3d"
       inkscape:vp_x="0 : 526.18109 : 1"
       inkscape:vp_y="0 : 1000 : 0"
       inkscape:vp_z="744.09448 : 526.18109 : 1"
       inkscape:persp3d-origin="372.04724 : 350.78739 : 1"
       id="perspective11" />
    <inkscape:perspective
       sodipodi:type="inkscape:persp3d"
       inkscape:vp_x="0 : 526.18109 : 1"
       inkscape:vp_y="0 : 1000 : 0"
       inkscape:vp_z="744.09448 : 526.18109 : 1"
       inkscape:persp3d-origin="372.04724 : 350.78739 : 1"
       id="perspective10" />
    <inkscape:perspective
       id="perspective2401"
       inkscape:persp3d-origin="372.04724 : 350.78739 : 1"
       inkscape:vp_z="744.09448 : 526.18109 : 1"
       inkscape:vp_y="0 : 1000 : 0"
       inkscape:vp_x="0 : 526.18109 : 1"
       sodipodi:type="inkscape:persp3d" />
  </defs>
  <sodipodi:namedview
     inkscape:window-height="723"
     inkscape:window-width="1280"
     inkscape:pageshadow="2"
     inkscape:pageopacity="0.0"
     guidetolerance="10.0"
     gridtolerance="10.0"
     objecttolerance="10.0"
     borderopacity="1.0"
     bordercolor="#666666"
     pagecolor="#ffffff"
     id="base"
     showgrid="false"
     inkscape:zoom="0.05867752"
     inkscape:cx="5627.1321"
     inkscape:cy="-629.3119"
     inkscape:window-x="0"
     inkscape:window-y="25"
     inkscape:current-layer="svg2" />
  <path
     style="fill:#ff0000;fill-rule:evenodd;stroke:none;stroke-width:1px;stroke-linecap:butt;stroke-linejoin:miter;stroke-opacity:1"
     d="M 1.8722232,29.972382 L 1.8722232,4058.7982 L 6043.406,4055.6726 L 6043.406,3.0495549 L 1.8722232,29.972382 z"
     id="path2435"
     sodipodi:nodetypes="ccccc" />
  <path
     style="fill:#222b00;fill-rule:evenodd;stroke:none;stroke-width:1px;stroke-linecap:butt;stroke-linejoin:miter;stroke-opacity:1"
     d="M 320.41859,420.44577 L 320.41859,4014.7578 L 5822.1376,4014.7578 L 5531.4035,3830.1168 L 506.73698,3830.1168 L 516.59117,590.08886 L 320.41859,420.44577 z"
     id="path3209"
     sodipodi:nodetypes="ccccccc" />
  <path
     style="fill:#800000;fill-rule:evenodd;stroke:none;stroke-width:1px;stroke-linecap:butt;stroke-linejoin:miter;stroke-opacity:1"
     d="M 315.11712,402.45911 L 520.25505,568.25499 L 5557.183,575.79114 L 5557.183,3807.6029 L 5836.3143,4028.6927 L 5836.3143,391.15492 L 315.11712,402.45911 z"
     id="path3215"
     sodipodi:nodetypes="ccccccc" />
  <path
     style="opacity:0.20085473;fill:#000000;fill-rule:evenodd;stroke:#000000;stroke-width:1.73840904px;stroke-linecap:butt;stroke-linejoin:miter;stroke-opacity:1"
     d="M 4111.6452,1167.2717 L 3446.2868,1523.6617 L 3461.2391,1668.8577 L 2324.8951,2210.0425 L 2137.9968,2724.828 L 1031.557,3318.8114 L 2108.0936,2830.4252 L 2354.7996,2223.2422 L 2631.4087,2276.0405 L 2848.2119,2922.8222 L 3685.5175,3398.0092 L 2885.5918,2856.8242 L 2631.4087,2223.2422 L 2534.2213,2144.0443 L 3468.7146,1695.2568 L 3521.0467,1563.2607 L 4111.6452,1167.2717 z"
     id="path3166" />
  <path
     style="opacity:0.1324786;fill:#000000;fill-rule:evenodd;stroke:#000000;stroke-width:1.73840904px;stroke-linecap:butt;stroke-linejoin:miter;stroke-opacity:1"
     d="M 57.975337,4005.1923 L 129.83975,3289.3275 L 108.6911,4004.6685 L 614.14339,3882.212 L 642.80811,1536.8613 L 695.14038,3965.5934 L 807.27875,3965.5934 L 874.56184,3793.998 L 911.94187,3991.9925 L 1382.9264,3925.9947 L 1502.5415,1444.464 L 1457.6863,3912.7944 L 2182.8521,3939.1943 L 2399.6551,586.48797 L 2227.7089,3991.9925 L 4089.2188,3899.5955 L 4066.7912,692.08517 L 4141.5498,3952.3932 L 5427.4122,3965.5934 L 5382.5566,652.48625 L 5449.8415,3939.1943 L 5704.0228,4031.592 L 57.975337,4005.1923 z"
     id="path3168"
     sodipodi:nodetypes="ccccccccccccccccccccccc" />
  <path
     style="opacity:0.29059831;fill:#800000;fill-rule:evenodd;stroke:#000000;stroke-width:2.33597231px;stroke-linecap:butt;stroke-linejoin:miter;stroke-opacity:1"
     d="M 36.626326,4051.149 L 352.68842,3667.7986 L 891.85381,3897.8088 L 1356.6509,3878.6412 L 1551.8652,3763.6355 L 2165.3989,3974.4791 L 3178.6567,3897.8088 L 3578.3825,3686.966 L 4145.4351,3763.6355 L 4796.1511,3974.4791 L 5167.9896,3801.9711 L 5474.7565,3974.4791 L 6004.6249,3801.9711 L 6032.5138,4108.6508 L 36.626326,4051.149 z"
     id="path2493" />
  <path
     style="fill:#280b0b;fill-rule:evenodd;stroke:none;stroke-width:1.76034832px;stroke-linecap:butt;stroke-linejoin:miter;stroke-opacity:1"
     d="M 2974.1606,2436.9067 L 3259.0074,2436.9067 L 3259.0074,2028.6287 L 2974.1606,2436.9067 z"
     id="path3390"
     sodipodi:nodetypes="cccc" />
  <path
     id="path3392"
     d="M 2978.8308,1944.8559 L 2969.4918,2063.9369 L 2974.1606,2438.1917 L 3259.0074,2029.9138 L 3230.9889,1936.3501 L 2978.8308,1944.8559 z"
     style="fill:#aa0000;fill-rule:evenodd;stroke:none;stroke-width:1.76034832px;stroke-linecap:butt;stroke-linejoin:miter;stroke-opacity:1"
     sodipodi:nodetypes="cccccc" />
  <path
     id="path3394"
     d="M 3002.0147,1991.9479 L 2994.2924,2090.4213 L 2998.1535,2399.9098 L 3233.7038,2399.9098 L 3233.7038,2062.2864 L 3210.5349,1984.9142 L 3002.0147,1991.9479 z"
     style="fill:#ffff00;fill-rule:evenodd;stroke:none;stroke-width:1.45571148px;stroke-linecap:butt;stroke-linejoin:miter;stroke-opacity:1" />
  <path
     style="fill:#aa0000;fill-rule:evenodd;stroke:none;stroke-width:1px;stroke-linecap:butt;stroke-linejoin:miter;stroke-opacity:1"
     d="M 3079.6237,2341.7074 L 3062.8936,2239.2184 L 3040.627,2171.8678 L 3051.3655,2150.9355 L 3068.5341,2201.361 L 3076.9796,2182.2805 L 3068.4,2138.6498 L 3068.5341,2100.3555 L 3082.5417,2085.4702 L 3084.2938,2125.8729 L 3091.2976,2171.5913 L 3106.4744,2168.4014 L 3105.8899,2044.0044 L 3122.8171,2037.6249 L 3122.2341,2106.7345 L 3125.1524,2169.4648 L 3139.1616,2172.6548 L 3147.1341,2106.9101 L 3153.1693,2064.2056 L 3169.967,2077.028 L 3166.5938,2130.1255 L 3152.5848,2198.1714 L 3162.5084,2231.1319 L 3181.7706,2196.0452 L 3197.5304,2225.8156 L 3167.763,2264.0918 L 3140.3292,2341.7074 L 3079.6237,2341.7074 z"
     id="path3396"
     sodipodi:nodetypes="cccccccccccccccccccccccccccc" />
  <path
     sodipodi:nodetypes="cccccccccccccccccccccccccccc"
     id="path3398"
     d="M 3081.9841,2341.7074 L 3066.9159,2249.3972 L 3046.8597,2188.735 L 3056.533,2169.8818 L 3071.9944,2215.2996 L 3079.6026,2198.1137 L 3071.8754,2158.8161 L 3071.9944,2124.3247 L 3084.6132,2110.9182 L 3086.1891,2147.3079 L 3092.4983,2188.4859 L 3106.1671,2185.6131 L 3105.6413,2073.5702 L 3120.8874,2067.8248 L 3120.3631,2130.0705 L 3122.9904,2186.5709 L 3135.6091,2189.4436 L 3145.5974,2134.8588 L 3148.2263,2091.7652 L 3163.3533,2103.3142 L 3160.3177,2151.1385 L 3147.7005,2212.4268 L 3156.6373,2242.1135 L 3173.9865,2210.5117 L 3188.181,2237.3254 L 3161.3694,2271.8002 L 3136.6607,2341.7074 L 3081.9841,2341.7074 z"
     style="fill:#550000;fill-rule:evenodd;stroke:none;stroke-width:1px;stroke-linecap:butt;stroke-linejoin:miter;stroke-opacity:1" />
  <rect
     style="opacity:1;fill:#aa4400;stroke:none;stroke-opacity:1"
     id="rect2432"
     width="1708.7852"
     height="735.53589"
     x="2350.2158"
     y="881.03998" />
</svg>
