<?xml version="1.0" encoding="UTF-8" standalone="no"?>
<svg
   xmlns:dc="http://purl.org/dc/elements/1.1/"
   xmlns:cc="http://creativecommons.org/ns#"
   xmlns:rdf="http://www.w3.org/1999/02/22-rdf-syntax-ns#"
   xmlns:svg="http://www.w3.org/2000/svg"
   xmlns="http://www.w3.org/2000/svg"
   xmlns:sodipodi="http://sodipodi.sourceforge.net/DTD/sodipodi-0.dtd"
   xmlns:inkscape="http://www.inkscape.org/namespaces/inkscape"
   id="svg2"
   sodipodi:version="0.32"
   inkscape:version="0.46"
   width="210mm"
   height="297mm"
   sodipodi:docname="door4.svg"
   inkscape:output_extension="org.inkscape.output.svg.inkscape">
  <metadata
     id="metadata9">
    <rdf:RDF>
      <cc:Work
         rdf:about="">
        <dc:format>image/svg+xml</dc:format>
        <dc:type
           rdf:resource="http://purl.org/dc/dcmitype/StillImage" />
      </cc:Work>
    </rdf:RDF>
  </metadata>
  <defs
     id="defs7">
    <inkscape:perspective
       sodipodi:type="inkscape:persp3d"
       inkscape:vp_x="0 : 526.18109 : 1"
       inkscape:vp_y="0 : 1000 : 0"
       inkscape:vp_z="744.09448 : 526.18109 : 1"
       inkscape:persp3d-origin="372.04724 : 350.78739 : 1"
       id="perspective11" />
    <inkscape:perspective
       id="perspective10"
       inkscape:persp3d-origin="372.04724 : 350.78739 : 1"
       inkscape:vp_z="744.09448 : 526.18109 : 1"
       inkscape:vp_y="0 : 1000 : 0"
       inkscape:vp_x="0 : 526.18109 : 1"
       sodipodi:type="inkscape:persp3d" />
  </defs>
  <sodipodi:namedview
     inkscape:window-height="723"
     inkscape:window-width="1280"
     inkscape:pageshadow="2"
     inkscape:pageopacity="0.0"
     guidetolerance="10.0"
     gridtolerance="10.0"
     objecttolerance="10.0"
     borderopacity="1.0"
     bordercolor="#666666"
     pagecolor="#ffffff"
     id="base"
     showgrid="false"
     inkscape:zoom="0.16"
     inkscape:cx="1077.67"
     inkscape:cy="-381.86034"
     inkscape:window-x="0"
     inkscape:window-y="25"
     inkscape:current-layer="svg2" />
  <path
     style="fill:#ff0000;fill-rule:evenodd;stroke:none;stroke-width:1px;stroke-linecap:butt;stroke-linejoin:miter;stroke-opacity:1"
     d="M -34.940773,-32.40096 L -34.940773,2485.2957 L 1269.6916,2483.3424 L 1269.6916,-49.225626 L -34.940773,-32.40096 z"
     id="path2435"
     sodipodi:nodetypes="ccccc" />
  <path
     style="fill:#222b00;fill-rule:evenodd;stroke:none;stroke-width:1px;stroke-linecap:butt;stroke-linejoin:miter;stroke-opacity:1"
     d="M 33.847499,211.61395 L 33.847499,2457.7742 L 1221.9104,2457.7742 L 1159.1278,2342.3884 L 74.081727,2342.3884 L 76.209532,317.62744 L 33.847499,211.61395 z"
     id="path3209"
     sodipodi:nodetypes="ccccccc" />
  <path
     style="fill:#800000;fill-rule:evenodd;stroke:none;stroke-width:1px;stroke-linecap:butt;stroke-linejoin:miter;stroke-opacity:1"
     d="M 32.702627,200.37372 L 77.000924,303.98297 L 1164.6949,308.6925 L 1164.6949,2328.3186 L 1224.9714,2466.4823 L 1224.9714,193.30945 L 32.702627,200.37372 z"
     id="path3215"
     sodipodi:nodetypes="ccccccc" />
  <path
     style="opacity:0.20085473;fill:#000000;fill-rule:evenodd;stroke:#000000;stroke-width:0.63860893px;stroke-linecap:butt;stroke-linejoin:miter;stroke-opacity:1"
     d="M 852.53998,678.32098 L 708.85988,901.0365 L 712.08862,991.77246 L 466.70202,1329.9702 L 426.34241,1651.6703 L 187.41344,2022.8629 L 419.88491,1717.6602 L 473.15962,1338.2189 L 532.89181,1371.2135 L 579.709,1775.4011 L 760.52004,2072.3551 L 587.7809,1734.1574 L 532.89181,1338.2189 L 511.90476,1288.7265 L 713.70294,1008.2699 L 725.00371,925.78268 L 852.53998,678.32098 z"
     id="path3166" />
  <path
     style="opacity:0.1324786;fill:#000000;fill-rule:evenodd;stroke:#000000;stroke-width:0.63860893px;stroke-linecap:butt;stroke-linejoin:miter;stroke-opacity:1"
     d="M -22.825654,2451.7965 L -7.3069512,2004.4377 L -11.873791,2451.4692 L 97.275529,2374.9434 L 103.46542,909.28524 L 114.76612,2427.0502 L 138.98189,2427.0502 L 153.51136,2319.817 L 161.58328,2443.5478 L 263.28953,2402.3044 L 289.11968,851.54421 L 279.43339,2394.0552 L 436.02872,2410.5529 L 482.84593,315.37721 L 445.71503,2443.5478 L 847.69691,2385.8068 L 842.85377,381.36703 L 858.9976,2418.8013 L 1136.6718,2427.0502 L 1126.9855,356.62085 L 1141.515,2410.5529 L 1196.404,2468.2939 L -22.825654,2451.7965 z"
     id="path3168"
     sodipodi:nodetypes="ccccccccccccccccccccccc" />
  <path
     style="opacity:0.29059831;fill:#800000;fill-rule:evenodd;stroke:#000000;stroke-width:0.85812533px;stroke-linecap:butt;stroke-linejoin:miter;stroke-opacity:1"
     d="M -27.435782,2480.5155 L 40.815939,2240.9522 L 157.24533,2384.6904 L 257.61551,2372.7119 L 299.77099,2300.8428 L 432.25963,2432.603 L 651.06659,2384.6904 L 737.38488,2252.9303 L 859.83656,2300.8428 L 1000.3548,2432.603 L 1080.6509,2324.7993 L 1146.8954,2432.603 L 1261.3174,2324.7993 L 1267.3396,2516.4498 L -27.435782,2480.5155 z"
     id="path2493" />
  <path
     style="fill:#280b0b;fill-rule:evenodd;stroke:none;stroke-width:1.76034832px;stroke-linecap:butt;stroke-linejoin:miter;stroke-opacity:1"
     d="M 606.90711,1471.7423 L 668.41762,1471.7423 L 668.41762,1216.6009 L 606.90711,1471.7423 z"
     id="path3390"
     sodipodi:nodetypes="cccc" />
  <path
     id="path3392"
     d="M 607.91546,1164.2495 L 605.89875,1238.6658 L 606.90711,1472.5453 L 668.41762,1217.4041 L 662.36743,1158.9342 L 607.91546,1164.2495 z"
     style="fill:#aa0000;fill-rule:evenodd;stroke:none;stroke-width:1.76034832px;stroke-linecap:butt;stroke-linejoin:miter;stroke-opacity:1"
     sodipodi:nodetypes="cccccc" />
  <path
     id="path3394"
     d="M 612.92175,1193.6782 L 611.254,1255.2164 L 612.08791,1448.6222 L 662.95378,1448.6222 L 662.95378,1237.6342 L 657.9505,1189.2827 L 612.92175,1193.6782 z"
     style="fill:#ffff00;fill-rule:evenodd;stroke:none;stroke-width:1.45571148px;stroke-linecap:butt;stroke-linejoin:miter;stroke-opacity:1" />
  <path
     style="fill:#aa0000;fill-rule:evenodd;stroke:none;stroke-width:1px;stroke-linecap:butt;stroke-linejoin:miter;stroke-opacity:1"
     d="M 629.68102,1412.2502 L 626.06825,1348.2028 L 621.25993,1306.1141 L 623.57886,1293.0329 L 627.28613,1324.545 L 629.11005,1312.621 L 627.25745,1285.3555 L 627.28613,1261.4243 L 630.31123,1252.1222 L 630.68944,1277.3707 L 632.20187,1305.9411 L 635.47908,1303.9478 L 635.353,1226.2095 L 639.00836,1222.2227 L 638.88239,1265.4109 L 639.51261,1304.6124 L 642.53776,1306.6057 L 644.25952,1265.5205 L 645.5628,1238.8337 L 649.19,1246.8466 L 648.4618,1280.0283 L 645.43671,1322.5517 L 647.57947,1343.1492 L 651.73908,1321.2229 L 655.14234,1339.827 L 648.71392,1363.7468 L 642.78983,1412.2502 L 629.68102,1412.2502 z"
     id="path3396"
     sodipodi:nodetypes="cccccccccccccccccccccccccccc" />
  <path
     sodipodi:nodetypes="cccccccccccccccccccccccccccc"
     id="path3398"
     d="M 630.1907,1412.2502 L 626.93665,1354.5636 L 622.60594,1316.6546 L 624.69457,1304.8729 L 628.03364,1333.2554 L 629.6764,1322.5155 L 628.00781,1297.9579 L 628.03364,1276.4034 L 630.75831,1268.0253 L 631.09887,1290.7661 L 632.4612,1316.4989 L 635.41287,1314.7036 L 635.29937,1244.6858 L 638.59179,1241.0952 L 638.47823,1279.994 L 639.04577,1315.3022 L 641.77057,1317.0975 L 643.92751,1282.9863 L 644.49518,1256.0562 L 647.76209,1263.2734 L 647.1063,1293.1598 L 644.38169,1331.4601 L 646.31163,1350.0118 L 650.0581,1330.2634 L 653.12332,1347.0198 L 647.33329,1368.5638 L 641.99763,1412.2502 L 630.1907,1412.2502 z"
     style="fill:#550000;fill-rule:evenodd;stroke:none;stroke-width:1px;stroke-linecap:butt;stroke-linejoin:miter;stroke-opacity:1" />
  <rect
     style="opacity:0.39516129;fill:#000000;stroke:none;stroke-opacity:1"
     id="rect2390"
     width="185.26764"
     height="187.5099"
     x="527.91736"
     y="408.5686" />
</svg>
