<?xml version="1.0" encoding="UTF-8" standalone="no"?>
<svg
   xmlns:dc="http://purl.org/dc/elements/1.1/"
   xmlns:cc="http://creativecommons.org/ns#"
   xmlns:rdf="http://www.w3.org/1999/02/22-rdf-syntax-ns#"
   xmlns:svg="http://www.w3.org/2000/svg"
   xmlns="http://www.w3.org/2000/svg"
   xmlns:sodipodi="http://sodipodi.sourceforge.net/DTD/sodipodi-0.dtd"
   xmlns:inkscape="http://www.inkscape.org/namespaces/inkscape"
   id="svg2"
   sodipodi:version="0.32"
   inkscape:version="0.46"
   width="800"
   height="480"
   sodipodi:docname="door1.svg"
   inkscape:output_extension="org.inkscape.output.svg.inkscape"
   version="1.0">
  <metadata
     id="metadata9">
    <rdf:RDF>
      <cc:Work
         rdf:about="">
        <dc:format>image/svg+xml</dc:format>
        <dc:type
           rdf:resource="http://purl.org/dc/dcmitype/StillImage" />
      </cc:Work>
    </rdf:RDF>
  </metadata>
  <defs
     id="defs7">
    <inkscape:perspective
       sodipodi:type="inkscape:persp3d"
       inkscape:vp_x="0 : 526.18109 : 1"
       inkscape:vp_y="0 : 1000 : 0"
       inkscape:vp_z="744.09448 : 526.18109 : 1"
       inkscape:persp3d-origin="372.04724 : 350.78739 : 1"
       id="perspective11" />
    <inkscape:perspective
       sodipodi:type="inkscape:persp3d"
       inkscape:vp_x="0 : 526.18109 : 1"
       inkscape:vp_y="0 : 1000 : 0"
       inkscape:vp_z="744.09448 : 526.18109 : 1"
       inkscape:persp3d-origin="372.04724 : 350.78739 : 1"
       id="perspective10" />
    <inkscape:perspective
       id="perspective2401"
       inkscape:persp3d-origin="372.04724 : 350.78739 : 1"
       inkscape:vp_z="744.09448 : 526.18109 : 1"
       inkscape:vp_y="0 : 1000 : 0"
       inkscape:vp_x="0 : 526.18109 : 1"
       sodipodi:type="inkscape:persp3d" />
  </defs>
  <sodipodi:namedview
     inkscape:window-height="723"
     inkscape:window-width="1280"
     inkscape:pageshadow="2"
     inkscape:pageopacity="0.0"
     guidetolerance="10.0"
     gridtolerance="10.0"
     objecttolerance="10.0"
     borderopacity="1.0"
     bordercolor="#666666"
     pagecolor="#ffffff"
     id="base"
     showgrid="false"
     inkscape:zoom="0.041491269"
     inkscape:cx="-535.21626"
     inkscape:cy="-5035.9619"
     inkscape:window-x="0"
     inkscape:window-y="25"
     inkscape:current-layer="svg2" />
  <path
     style="fill:#ff0000;fill-rule:evenodd;stroke:none;stroke-width:1px;stroke-linecap:butt;stroke-linejoin:miter;stroke-opacity:1"
     d="M -0.66788041,25.112425 L -0.66788041,3930.2266 L 10051.292,3927.1968 L 10051.292,-0.98374119 L -0.66788041,25.112425 z"
     id="path2435"
     sodipodi:nodetypes="ccccc" />
  <path
     style="fill:#222b00;fill-rule:evenodd;stroke:none;stroke-width:1px;stroke-linecap:butt;stroke-linejoin:miter;stroke-opacity:1"
     d="M 529.33494,403.5957 L 529.33494,3887.5392 L 9683.1471,3887.5392 L 9199.4179,3708.5681 L 839.33019,3708.5681 L 855.72687,568.02969 L 529.33494,403.5957 z"
     id="path3209"
     sodipodi:nodetypes="ccccccc" />
  <path
     style="fill:#800000;fill-rule:evenodd;stroke:none;stroke-width:1px;stroke-linecap:butt;stroke-linejoin:miter;stroke-opacity:1"
     d="M 520.51371,386.16139 L 861.82472,546.86621 L 9242.31,554.17096 L 9242.31,3686.745 L 9706.7315,3901.0457 L 9706.7315,375.20423 L 520.51371,386.16139 z"
     id="path3215"
     sodipodi:nodetypes="ccccccc" />
  <path
     style="opacity:0.20085473;fill:#000000;fill-rule:evenodd;stroke:#000000;stroke-width:2.20765638px;stroke-linecap:butt;stroke-linejoin:miter;stroke-opacity:1"
     d="M 6837.2117,1127.4892 L 5730.1839,1472.9359 L 5755.0604,1613.6731 L 3864.3997,2138.2403 L 3553.4388,2637.2183 L 1712.5335,3212.9627 L 3503.6832,2739.573 L 3914.1576,2151.0345 L 4374.3805,2202.2115 L 4735.1016,2829.1332 L 6128.216,3289.7286 L 4797.2919,2765.1615 L 4374.3805,2151.0345 L 4212.6788,2074.2686 L 5767.5002,1639.262 L 5854.5694,1511.3188 L 6837.2117,1127.4892 z"
     id="path3166" />
  <path
     style="opacity:0.1324786;fill:#000000;fill-rule:evenodd;stroke:#000000;stroke-width:2.20765638px;stroke-linecap:butt;stroke-linejoin:miter;stroke-opacity:1"
     d="M 92.679599,3878.2669 L 212.24952,3184.3844 L 177.05951,3877.7594 L 1018.0354,3759.0626 L 1065.7283,1485.7301 L 1152.7998,3839.8838 L 1339.3753,3839.8838 L 1451.3211,3673.5584 L 1513.5163,3865.4732 L 2297.1439,3801.5016 L 2496.1615,1396.1699 L 2421.5292,3788.7065 L 3628.0684,3814.2959 L 3988.7873,564.53942 L 3702.6982,3865.4732 L 6799.8981,3775.9128 L 6762.5818,666.89398 L 6886.9673,3827.0891 L 9026.3989,3839.8838 L 8951.7662,628.51103 L 9063.7148,3814.2959 L 9486.6236,3903.8557 L 92.679599,3878.2669 z"
     id="path3168"
     sodipodi:nodetypes="ccccccccccccccccccccccc" />
  <path
     style="opacity:0.29059831;fill:#800000;fill-rule:evenodd;stroke:#000000;stroke-width:2.96651888px;stroke-linecap:butt;stroke-linejoin:miter;stroke-opacity:1"
     d="M 57.158014,3922.8123 L 583.02574,3551.2343 L 1480.0939,3774.1812 L 2253.4279,3755.6017 L 2578.2298,3644.1282 L 3599.0299,3848.4966 L 5284.8973,3774.1812 L 5949.9643,3569.8127 L 6893.4336,3644.1282 L 7976.1017,3848.4966 L 8594.7658,3681.2862 L 9105.1683,3848.4966 L 9986.7688,3681.2862 L 10033.17,3978.5489 L 57.158014,3922.8123 z"
     id="path2493" />
  <path
     style="fill:#280b0b;fill-rule:evenodd;stroke:none;stroke-width:1.76034832px;stroke-linecap:butt;stroke-linejoin:miter;stroke-opacity:1"
     d="M 4944.6567,2358.1382 L 5418.5819,2358.1382 L 5418.5819,1962.3969 L 4944.6567,2358.1382 z"
     id="path3390"
     sodipodi:nodetypes="cccc" />
  <path
     id="path3392"
     d="M 4952.4246,1881.1968 L 4936.8885,1996.621 L 4944.6567,2359.3839 L 5418.5819,1963.6428 L 5371.969,1872.9521 L 4952.4246,1881.1968 z"
     style="fill:#aa0000;fill-rule:evenodd;stroke:none;stroke-width:1.76034832px;stroke-linecap:butt;stroke-linejoin:miter;stroke-opacity:1"
     sodipodi:nodetypes="cccccc" />
  <path
     id="path3394"
     d="M 4990.9987,1926.8424 L 4978.1474,2022.2922 L 4984.5714,2322.2773 L 5376.4845,2322.2773 L 5376.4845,1995.0212 L 5337.9373,1920.0248 L 4990.9987,1926.8424 z"
     style="fill:#ffff00;fill-rule:evenodd;stroke:none;stroke-width:1.45571148px;stroke-linecap:butt;stroke-linejoin:miter;stroke-opacity:1" />
  <path
     style="fill:#aa0000;fill-rule:evenodd;stroke:none;stroke-width:1px;stroke-linecap:butt;stroke-linejoin:miter;stroke-opacity:1"
     d="M 5120.1239,2265.8619 L 5092.2899,2166.5205 L 5055.2419,2101.2379 L 5073.1114,2080.9482 L 5101.6719,2129.8256 L 5115.7253,2111.3307 L 5101.4525,2069.0399 L 5101.6719,2031.9212 L 5124.9806,2017.4932 L 5127.8942,2056.655 L 5139.5463,2100.9695 L 5164.7983,2097.8779 L 5163.8255,1977.3004 L 5191.991,1971.1169 L 5191.0183,2038.1045 L 5195.8775,2098.9086 L 5219.184,2102.0005 L 5232.4498,2038.2743 L 5242.4904,1996.8817 L 5270.439,2009.3101 L 5264.8265,2060.7772 L 5241.52,2126.7338 L 5258.0287,2158.6821 L 5290.0783,2124.6728 L 5316.2981,2153.5288 L 5266.7721,2190.6303 L 5221.1246,2265.8619 L 5120.1239,2265.8619 z"
     id="path3396"
     sodipodi:nodetypes="cccccccccccccccccccccccccccc" />
  <path
     sodipodi:nodetypes="cccccccccccccccccccccccccccc"
     id="path3398"
     d="M 5124.0515,2265.8619 L 5098.9801,2176.3862 L 5065.6116,2117.5871 L 5081.7032,2099.3128 L 5107.4332,2143.3359 L 5120.0896,2126.6778 L 5107.2334,2088.5872 L 5107.4332,2055.1546 L 5128.4258,2042.1598 L 5131.0494,2077.4322 L 5141.5455,2117.3457 L 5164.2888,2114.5609 L 5163.4135,2005.9585 L 5188.7801,2000.3896 L 5187.9046,2060.7241 L 5192.2787,2115.4893 L 5213.2741,2118.2738 L 5229.8947,2065.3651 L 5234.2663,2023.5949 L 5259.4357,2034.7892 L 5254.3837,2081.1451 L 5233.3911,2140.5512 L 5248.2614,2169.3263 L 5277.1268,2138.6951 L 5300.7452,2164.6853 L 5256.1319,2198.1016 L 5215.0217,2265.8619 L 5124.0515,2265.8619 z"
     style="fill:#550000;fill-rule:evenodd;stroke:none;stroke-width:1px;stroke-linecap:butt;stroke-linejoin:miter;stroke-opacity:1" />
  <rect
     style="opacity:1;fill:#00ff00;stroke:none;stroke-opacity:1"
     id="rect3199"
     width="2972.2954"
     height="754.8103"
     x="3190.5452"
     y="700.38898" />
</svg>
