<?xml version="1.0" encoding="UTF-8" standalone="no"?>
<svg
   xmlns:dc="http://purl.org/dc/elements/1.1/"
   xmlns:cc="http://creativecommons.org/ns#"
   xmlns:rdf="http://www.w3.org/1999/02/22-rdf-syntax-ns#"
   xmlns:svg="http://www.w3.org/2000/svg"
   xmlns="http://www.w3.org/2000/svg"
   xmlns:sodipodi="http://sodipodi.sourceforge.net/DTD/sodipodi-0.dtd"
   xmlns:inkscape="http://www.inkscape.org/namespaces/inkscape"
   id="svg2"
   sodipodi:version="0.32"
   inkscape:version="0.46"
   width="800"
   height="480"
   sodipodi:docname="door2.svg"
   inkscape:output_extension="org.inkscape.output.svg.inkscape"
   version="1.0">
  <metadata
     id="metadata9">
    <rdf:RDF>
      <cc:Work
         rdf:about="">
        <dc:format>image/svg+xml</dc:format>
        <dc:type
           rdf:resource="http://purl.org/dc/dcmitype/StillImage" />
      </cc:Work>
    </rdf:RDF>
  </metadata>
  <defs
     id="defs7">
    <inkscape:perspective
       sodipodi:type="inkscape:persp3d"
       inkscape:vp_x="0 : 526.18109 : 1"
       inkscape:vp_y="0 : 1000 : 0"
       inkscape:vp_z="744.09448 : 526.18109 : 1"
       inkscape:persp3d-origin="372.04724 : 350.78739 : 1"
       id="perspective11" />
    <inkscape:perspective
       sodipodi:type="inkscape:persp3d"
       inkscape:vp_x="0 : 526.18109 : 1"
       inkscape:vp_y="0 : 1000 : 0"
       inkscape:vp_z="744.09448 : 526.18109 : 1"
       inkscape:persp3d-origin="372.04724 : 350.78739 : 1"
       id="perspective10" />
    <inkscape:perspective
       id="perspective2401"
       inkscape:persp3d-origin="372.04724 : 350.78739 : 1"
       inkscape:vp_z="744.09448 : 526.18109 : 1"
       inkscape:vp_y="0 : 1000 : 0"
       inkscape:vp_x="0 : 526.18109 : 1"
       sodipodi:type="inkscape:persp3d" />
  </defs>
  <sodipodi:namedview
     inkscape:window-height="723"
     inkscape:window-width="1280"
     inkscape:pageshadow="2"
     inkscape:pageopacity="0.0"
     guidetolerance="10.0"
     gridtolerance="10.0"
     objecttolerance="10.0"
     borderopacity="1.0"
     bordercolor="#666666"
     pagecolor="#ffffff"
     id="base"
     showgrid="false"
     inkscape:zoom="0.058677515"
     inkscape:cx="2261.7384"
     inkscape:cy="-1061.093"
     inkscape:window-x="0"
     inkscape:window-y="25"
     inkscape:current-layer="svg2" />
  <path
     style="fill:#ff0000;fill-rule:evenodd;stroke:none;stroke-width:1px;stroke-linecap:butt;stroke-linejoin:miter;stroke-opacity:1"
     d="M 1.7320466,23.190189 L 1.7320466,3925.2145 L 7551.3637,3922.1872 L 7551.3637,-2.8853455 L 1.7320466,23.190189 z"
     id="path2435"
     sodipodi:nodetypes="ccccc" />
  <path
     style="fill:#222b00;fill-rule:evenodd;stroke:none;stroke-width:1px;stroke-linecap:butt;stroke-linejoin:miter;stroke-opacity:1"
     d="M 399.79498,401.37404 L 399.79498,3882.5608 L 7274.8632,3882.5608 L 6911.5516,3703.7311 L 632.62187,3703.7311 L 644.93504,565.67784 L 399.79498,401.37404 z"
     id="path3209"
     sodipodi:nodetypes="ccccccc" />
  <path
     style="fill:#800000;fill-rule:evenodd;stroke:none;stroke-width:1px;stroke-linecap:butt;stroke-linejoin:miter;stroke-opacity:1"
     d="M 393.16989,383.95347 L 649.51469,544.53115 L 6943.7683,551.83017 L 6943.7683,3681.9256 L 7292.5752,3896.0568 L 7292.5752,373.00499 L 393.16989,383.95347 z"
     id="path3215"
     sodipodi:nodetypes="ccccccc" />
  <path
     style="opacity:0.20085473;fill:#000000;fill-rule:evenodd;stroke:#000000;stroke-width:1.91248059px;stroke-linecap:butt;stroke-linejoin:miter;stroke-opacity:1"
     d="M 5137.3933,1124.6948 L 4305.948,1469.8679 L 4324.6318,1610.4943 L 2904.6329,2134.6461 L 2671.0787,2633.2296 L 1288.4478,3208.5182 L 2633.7112,2735.5034 L 2942.0004,2147.4303 L 3287.6574,2198.5667 L 3558.5791,2824.9926 L 4604.8944,3285.2231 L 3605.2895,2761.0713 L 3287.6574,2147.4303 L 3166.2099,2070.7252 L 4333.9745,1636.0626 L 4399.3689,1508.2207 L 5137.3933,1124.6948 z"
     id="path3166" />
  <path
     style="opacity:0.1324786;fill:#000000;fill-rule:evenodd;stroke:#000000;stroke-width:1.91248059px;stroke-linecap:butt;stroke-linejoin:miter;stroke-opacity:1"
     d="M 71.839539,3873.2961 L 161.6429,3179.9623 L 135.21572,3872.7889 L 766.83949,3754.1862 L 802.65901,1482.6521 L 868.05419,3834.9434 L 1008.1855,3834.9434 L 1092.2643,3668.749 L 1138.9748,3860.5125 L 1727.5272,3796.5915 L 1876.9995,1393.163 L 1820.9479,3783.8067 L 2727.1321,3809.3754 L 2998.0537,562.19037 L 2783.1853,3860.5125 L 5109.3684,3771.0228 L 5081.3415,664.46393 L 5174.7625,3822.1593 L 6781.6034,3834.9434 L 6725.552,626.11139 L 6809.6301,3809.3754 L 7127.262,3898.865 L 71.839539,3873.2961 z"
     id="path3168"
     sodipodi:nodetypes="ccccccccccccccccccccccc" />
  <path
     style="opacity:0.29059831;fill:#800000;fill-rule:evenodd;stroke:#000000;stroke-width:2.56987953px;stroke-linecap:butt;stroke-linejoin:miter;stroke-opacity:1"
     d="M 45.161769,3917.806 L 440.11992,3546.5218 L 1113.8719,3769.2928 L 1694.6924,3750.7284 L 1938.6387,3639.3425 L 2705.3206,3843.5499 L 3971.5106,3769.2928 L 4471.0168,3565.0858 L 5179.6181,3639.3425 L 5992.7667,3843.5499 L 6457.424,3676.4712 L 6840.766,3843.5499 L 7502.9011,3676.4712 L 7537.7498,3973.4986 L 45.161769,3917.806 z"
     id="path2493" />
  <path
     style="fill:#280b0b;fill-rule:evenodd;stroke:none;stroke-width:1.76034832px;stroke-linecap:butt;stroke-linejoin:miter;stroke-opacity:1"
     d="M 3715.9688,2354.3699 L 4071.917,2354.3699 L 4071.917,1958.942 L 3715.9688,2354.3699 z"
     id="path3390"
     sodipodi:nodetypes="cccc" />
  <path
     id="path3392"
     d="M 3721.8024,1877.8056 L 3710.1334,1993.139 L 3715.9688,2355.6148 L 4071.917,1960.1867 L 4036.9047,1869.5679 L 3721.8024,1877.8056 z"
     style="fill:#aa0000;fill-rule:evenodd;stroke:none;stroke-width:1.76034832px;stroke-linecap:butt;stroke-linejoin:miter;stroke-opacity:1"
     sodipodi:nodetypes="cccccc" />
  <path
     id="path3394"
     d="M 3750.7738,1923.4158 L 3741.1227,2018.7898 L 3745.9491,2318.5377 L 4040.2985,2318.5377 L 4040.2985,1991.5402 L 4011.3472,1916.6032 L 3750.7738,1923.4158 z"
     style="fill:#ffff00;fill-rule:evenodd;stroke:none;stroke-width:1.45571148px;stroke-linecap:butt;stroke-linejoin:miter;stroke-opacity:1" />
  <path
     style="fill:#aa0000;fill-rule:evenodd;stroke:none;stroke-width:1px;stroke-linecap:butt;stroke-linejoin:miter;stroke-opacity:1"
     d="M 3847.7571,2262.1669 L 3826.85,2162.9038 L 3799.027,2097.6729 L 3812.4441,2077.3994 L 3833.898,2126.2379 L 3844.4532,2107.7579 L 3833.7309,2065.5003 L 3833.898,2028.4111 L 3851.404,2013.9944 L 3853.5924,2053.1253 L 3862.3446,2097.4049 L 3881.3091,2094.3157 L 3880.579,1973.8337 L 3901.732,1967.6551 L 3901.0037,2034.5894 L 3904.6505,2095.3455 L 3922.1549,2098.4348 L 3932.1177,2034.7595 L 3939.6609,1993.3993 L 3960.6506,2005.8182 L 3956.437,2057.2441 L 3938.9309,2123.1486 L 3951.3298,2155.0716 L 3975.4033,2121.0892 L 3995.096,2149.9228 L 3957.8954,2186.9944 L 3923.6133,2262.1669 L 3847.7571,2262.1669 z"
     id="path3396"
     sodipodi:nodetypes="cccccccccccccccccccccccccccc" />
  <path
     sodipodi:nodetypes="cccccccccccccccccccccccccccc"
     id="path3398"
     d="M 3850.7069,2262.1669 L 3831.8745,2172.762 L 3806.8143,2114.0093 L 3818.9013,2095.7493 L 3838.2236,2139.7375 L 3847.7297,2123.0928 L 3838.075,2085.0321 L 3838.2236,2051.6262 L 3853.9907,2038.6415 L 3855.9626,2073.8861 L 3863.8452,2113.7679 L 3880.9257,2110.9855 L 3880.2689,2002.4691 L 3899.3197,1996.9044 L 3898.663,2057.1912 L 3901.9485,2111.913 L 3917.7172,2114.6956 L 3930.197,2061.8287 L 3933.4825,2020.0915 L 3952.3865,2031.2768 L 3948.5929,2077.5961 L 3932.8258,2136.9552 L 3943.9939,2165.7076 L 3965.6751,2135.1004 L 3983.4124,2161.0702 L 3949.9062,2194.4601 L 3919.0308,2262.1669 L 3850.7069,2262.1669 z"
     style="fill:#550000;fill-rule:evenodd;stroke:none;stroke-width:1px;stroke-linecap:butt;stroke-linejoin:miter;stroke-opacity:1" />
  <rect
     style="opacity:1;fill:#ffff00;stroke:none;stroke-opacity:1"
     id="rect2427"
     width="1775.2366"
     height="596.25977"
     x="2904.7327"
     y="713.60626" />
</svg>
