<?xml version="1.0" encoding="UTF-8" standalone="no"?>
<!-- Created with Inkscape (http://www.inkscape.org/) -->
<svg
   xmlns:dc="http://purl.org/dc/elements/1.1/"
   xmlns:cc="http://creativecommons.org/ns#"
   xmlns:rdf="http://www.w3.org/1999/02/22-rdf-syntax-ns#"
   xmlns:svg="http://www.w3.org/2000/svg"
   xmlns="http://www.w3.org/2000/svg"
   xmlns:sodipodi="http://sodipodi.sourceforge.net/DTD/sodipodi-0.dtd"
   xmlns:inkscape="http://www.inkscape.org/namespaces/inkscape"
   width="800"
   height="480"
   id="svg3223"
   sodipodi:version="0.32"
   inkscape:version="0.46"
   version="1.0"
   sodipodi:docname="logo.svg"
   inkscape:output_extension="org.inkscape.output.svg.inkscape">
  <defs
     id="defs3225">
    <inkscape:perspective
       sodipodi:type="inkscape:persp3d"
       inkscape:vp_x="0 : 526.18109 : 1"
       inkscape:vp_y="0 : 1000 : 0"
       inkscape:vp_z="744.09448 : 526.18109 : 1"
       inkscape:persp3d-origin="372.04724 : 350.78739 : 1"
       id="perspective3231" />
  </defs>
  <sodipodi:namedview
     id="base"
     pagecolor="#ffffff"
     bordercolor="#666666"
     borderopacity="1.0"
     gridtolerance="10000"
     guidetolerance="10"
     objecttolerance="10"
     inkscape:pageopacity="0.0"
     inkscape:pageshadow="2"
     inkscape:zoom="0.7"
     inkscape:cx="392.78318"
     inkscape:cy="186.64332"
     inkscape:document-units="px"
     inkscape:current-layer="layer1"
     showgrid="false"
     inkscape:window-width="640"
     inkscape:window-height="718"
     inkscape:window-x="50"
     inkscape:window-y="25" />
  <metadata
     id="metadata3228">
    <rdf:RDF>
      <cc:Work
         rdf:about="">
        <dc:format>image/svg+xml</dc:format>
        <dc:type
           rdf:resource="http://purl.org/dc/dcmitype/StillImage" />
      </cc:Work>
    </rdf:RDF>
  </metadata>
  <g
     inkscape:label="Layer 1"
     inkscape:groupmode="layer"
     id="layer1">
    <path
       sodipodi:nodetypes="ccccscccc"
       id="path2383"
       d="M 88.46552,58.164488 L 120.50653,57.491058 L 120.65977,104.87746 L 147.17207,104.62555 C 147.17207,104.62555 149.97707,116.81018 146.60568,117.08518 C 143.36959,117.34917 110.8141,117.35121 110.8141,117.35121 L 110.81643,69.350508 L 88.39672,69.350508 L 88.46552,58.164488 z"
       style="fill:#00ffff;fill-rule:evenodd;stroke:none;stroke-width:1.3312062px;stroke-linecap:butt;stroke-linejoin:miter;stroke-opacity:1" />
    <path
       sodipodi:nodetypes="ccccccccc"
       id="path2385"
       d="M 102.44649,89.393168 L 88.67238,97.28832 L 88.7248,110.42779 L 103.65556,112.86817 L 103.71969,110.55894 L 97.20526,108.05894 L 96.84504,99.32658 L 102.57255,91.440298 L 102.44649,89.393168 z"
       style="fill:#00ffff;fill-rule:evenodd;stroke:none;stroke-width:1.80328798px;stroke-linecap:butt;stroke-linejoin:miter;stroke-opacity:1" />
    <path
       sodipodi:nodetypes="ccccccccccccscc"
       id="path2387"
       d="M 246.7096,40.753488 L 246.94213,63.139288 L 229.36967,63.491348 L 218.47028,75.618208 L 220.94742,89.766208 L 235.81022,106.44065 L 257.81116,106.34162 L 257.60899,109.97765 L 235.51722,110.18351 L 217.71222,90.883618 L 214.6283,74.511738 L 228.09577,59.450628 C 235.4019,59.556658 240.09428,63.262268 243.21474,59.818148 C 246.51987,56.170228 243.87328,47.899938 243.29225,40.602598 L 246.7096,40.753488 z"
       style="fill:#00ffff;fill-rule:evenodd;stroke:none;stroke-width:0.82473832px;stroke-linecap:butt;stroke-linejoin:miter;stroke-opacity:1" />
    <path
       sodipodi:nodetypes="ccccccccccccccccc"
       id="path2389"
       d="M 254.7589,87.387298 L 254.7589,80.330178 L 247.50899,80.365078 L 247.91193,98.28171 L 254.85963,98.00789 L 254.7589,93.802868 L 272.79454,93.919628 L 272.9462,110.81618 L 262.53907,116.89891 L 253.75043,119.93219 L 240.25796,114.41454 L 238.36498,117.86124 L 253.36959,123.63526 L 266.42915,119.78591 L 281.1559,112.08724 L 281.02857,88.274438 L 254.7589,87.387298 z"
       style="fill:#00ffff;fill-rule:evenodd;stroke:none;stroke-width:0.49212551px;stroke-linecap:butt;stroke-linejoin:miter;stroke-opacity:1" />
    <path
       sodipodi:nodetypes="ccccccccccc"
       id="path2391"
       d="M 439.16824,72.802338 L 438.99441,64.386598 L 442.22796,64.562078 L 442.21434,86.936448 L 439.4179,86.868558 L 439.37785,77.798508 L 432.83026,77.511068 L 433.07778,105.28637 L 429.11488,105.29253 L 429.08378,72.718568 L 439.16824,72.802338 z"
       style="fill:#00ffff;fill-rule:evenodd;stroke:none;stroke-width:0.37391347px;stroke-linecap:butt;stroke-linejoin:miter;stroke-opacity:1" />
    <path
       sodipodi:nodetypes="ccccccccccccccccc"
       id="path2393"
       d="M 439.53846,42.223038 L 439.52952,51.860838 L 461.46045,65.503818 L 461.90164,82.816368 L 447.03608,92.108108 L 447.03608,100.34837 L 439.16824,100.11293 L 439.16417,103.56742 L 447.03608,103.87991 L 446.95812,110.43421 L 473.48078,127.89439 L 478.50747,123.89198 L 449.2216,105.7634 L 449.12174,93.189758 L 467.57991,82.926098 L 467.58924,60.428248 L 439.53846,42.223038 z"
       style="fill:#00ffff;fill-rule:evenodd;stroke:none;stroke-width:0.37391347px;stroke-linecap:butt;stroke-linejoin:miter;stroke-opacity:1" />
    <path
       id="path2395"
       d="M 668.32411,55.029278 L 668.32411,43.502818 L 679.24391,45.322788 L 678.03061,130.25455 L 664.68421,127.22127 L 666.50421,70.802318 L 644.05793,68.375688 L 642.84462,56.242588 L 668.32411,55.029278 z"
       style="fill:#00ffff;fill-rule:evenodd;stroke:none;stroke-width:1px;stroke-linecap:butt;stroke-linejoin:miter;stroke-opacity:1" />
    <path
       id="path2397"
       d="M 698.05031,47.749408 L 698.65691,110.23492 L 709.57671,107.20164 L 709.57671,78.688838 L 719.88981,77.475528 L 719.88981,64.129108 L 708.97001,65.342418 L 708.97001,48.356068 L 698.05031,47.749408 z"
       style="fill:#00ffff;fill-rule:evenodd;stroke:none;stroke-width:1px;stroke-linecap:butt;stroke-linejoin:miter;stroke-opacity:1" />
    <path
       sodipodi:nodetypes="ccccccccccccccccccccccc"
       id="path2401"
       d="M 509.36974,87.820348 L 509.04959,54.570748 L 501.77219,54.679408 L 501.34401,66.223048 L 483.06107,93.670118 L 490.96925,118.16438 L 510.66537,125.4326 L 533.14742,118.70632 L 542.97961,93.903158 L 522.32306,66.310298 L 522.10936,54.333398 L 514.5126,54.341978 L 516.22136,87.703088 L 523.28508,87.592988 L 522.96652,72.719128 L 538.27444,93.797348 L 531.00654,115.72638 L 511.30802,121.71338 L 492.89645,114.87271 L 487.97201,94.22204 L 500.91582,73.491258 L 501.3448,87.816058 L 509.36974,87.820348 z"
       style="fill:#00ffff;fill-rule:evenodd;stroke:none;stroke-width:0.7052753px;stroke-linecap:butt;stroke-linejoin:miter;stroke-opacity:1" />
    <path
       sodipodi:nodetypes="ccccccccccccccccccccc"
       id="path2403"
       d="M 321.34488,45.889278 L 322.1395,49.470048 L 299.49276,61.644658 L 299.49276,75.609638 L 327.36223,85.581038 L 327.70186,96.73616 L 340.92203,97.03949 L 340.81313,99.60078 L 328.09917,99.95886 L 327.70186,105.68808 L 303.46587,121.80153 L 301.71004,118.0861 L 321.74219,103.18155 L 320.62931,87.354418 L 291.54654,77.400028 L 291.54654,70.954648 L 281.76542,71.093728 L 281.23783,65.448838 L 291.92247,65.558328 L 292.2258,59.138118 L 321.34488,45.889278 z"
       style="fill:#00ffff;fill-rule:evenodd;stroke:none;stroke-width:0.62174356px;stroke-linecap:butt;stroke-linejoin:miter;stroke-opacity:1" />
    <path
       sodipodi:nodetypes="ccccccccc"
       id="path2405"
       d="M 345.99306,57.295868 L 345.68973,67.550128 L 338.91653,67.353598 L 338.86177,51.580678 L 379.17867,51.701378 L 378.80054,117.37136 L 374.92051,117.4116 L 374.13906,57.079228 L 345.99306,57.295868 z"
       style="fill:#00ffff;fill-rule:evenodd;stroke:none;stroke-width:0.54338843px;stroke-linecap:butt;stroke-linejoin:miter;stroke-opacity:1" />
    <path
       sodipodi:nodetypes="ccccccc"
       id="path2407"
       d="M 380.73207,43.681838 L 380.77423,61.163298 L 413.34984,61.410908 L 413.2298,54.239428 L 387.74331,54.092398 L 387.7865,43.853618 L 380.73207,43.681838 z"
       style="fill:#00ffff;fill-rule:evenodd;stroke:none;stroke-width:0.54338843px;stroke-linecap:butt;stroke-linejoin:miter;stroke-opacity:1" />
    <path
       sodipodi:nodetypes="ccccccccccccccccccccccc"
       style="fill:#00ffff;fill-rule:evenodd;stroke:none;stroke-width:0.37824497px;stroke-linecap:butt;stroke-linejoin:miter;stroke-opacity:1"
       d="M 566.93423,118.82148 L 561.89777,118.843 L 561.66235,63.789388 L 556.03603,63.639088 L 556.02687,58.575828 L 566.75244,58.575828 L 566.85968,63.360418 L 574.69494,63.606998 L 575.61828,79.171658 L 593.47547,105.78756 L 593.47547,88.409018 L 595.00048,88.445568 L 594.92978,82.036878 L 598.02018,82.036878 L 599.40911,119.07903 L 596.2023,119.1111 L 595.83872,113.02863 L 592.28655,112.7769 L 592.20294,109.55291 L 575.30177,85.469508 L 575.71637,108.71608 L 566.73893,108.69768 L 566.93423,118.82148 z"
       id="path2409" />
    <path
       id="path2433"
       d="M 164.9892,116.67663 L 159.95273,116.69815 L 159.71732,61.644538 L 154.09099,61.494238 L 154.08184,56.430978 L 164.80741,56.430978 L 164.91465,61.215568 L 172.74989,61.462148 L 173.67323,77.026808 L 191.53042,103.64271 L 191.53042,86.264158 L 193.05543,86.300718 L 192.98473,79.892028 L 196.07514,79.892028 L 197.46407,116.93418 L 194.25726,116.96625 L 193.89367,110.88377 L 190.34151,110.63205 L 190.25789,107.40806 L 173.35673,83.324658 L 173.77132,106.57123 L 164.7939,106.55283 L 164.9892,116.67663 z"
       style="fill:#00ffff;fill-rule:evenodd;stroke:none;stroke-width:0.37824497px;stroke-linecap:butt;stroke-linejoin:miter;stroke-opacity:1"
       sodipodi:nodetypes="ccccccccccccccccccccccc" />
    <path
       style="fill:#000000;fill-rule:evenodd;stroke:none;stroke-width:1.3312062px;stroke-linecap:butt;stroke-linejoin:miter;stroke-opacity:1"
       d="M 87.60754,64.967208 L 119.64857,64.403338 L 119.80183,104.08071 L 146.31411,103.86978 C 146.31411,103.86978 149.11915,114.07215 145.74772,114.30243 C 142.51167,114.52346 109.95616,114.52517 109.95616,114.52517 L 109.95848,74.333458 L 87.53876,74.333458 L 87.60754,64.967208 z"
       id="path3246"
       sodipodi:nodetypes="ccccscccc" />
    <path
       style="fill:#000000;fill-rule:evenodd;stroke:none;stroke-width:1.80328798px;stroke-linecap:butt;stroke-linejoin:miter;stroke-opacity:1"
       d="M 101.94567,86.264958 L 87.81444,90.928058 L 87.86688,114.0728 L 102.97618,115.48564 L 103.04033,111.418 L 96.34732,109.90014 L 95.9871,94.51838 L 102.07177,89.870898 L 101.94567,86.264958 z"
       id="path3248"
       sodipodi:nodetypes="ccccccccc" />
    <path
       style="fill:#000000;fill-rule:evenodd;stroke:none;stroke-width:0.82473832px;stroke-linecap:butt;stroke-linejoin:miter;stroke-opacity:1"
       d="M 245.85166,48.450398 L 246.0842,67.194378 L 228.51173,67.489168 L 217.61234,77.643168 L 220.08948,89.489518 L 234.95228,103.45128 L 256.95322,103.36836 L 256.75105,106.41286 L 234.65928,106.58524 L 216.85428,90.425138 L 213.77036,76.716708 L 227.23783,64.105808 C 234.54395,64.194588 239.23634,67.297358 242.35681,64.413538 C 245.66193,61.359078 243.01534,54.434238 242.43432,48.324068 L 245.85166,48.450398 z"
       id="path3250"
       sodipodi:nodetypes="ccccccccccccscc" />
    <path
       style="fill:#000000;fill-rule:evenodd;stroke:none;stroke-width:0.49212551px;stroke-linecap:butt;stroke-linejoin:miter;stroke-opacity:1"
       d="M 253.90096,87.497618 L 253.90096,81.588578 L 246.65105,81.617798 L 247.05399,96.61967 L 254.0017,96.3904 L 253.90096,92.869468 L 271.9366,92.967238 L 272.08826,107.11498 L 261.68113,112.20814 L 252.89249,114.74795 L 239.40002,110.12795 L 237.50704,113.01392 L 252.51165,117.84859 L 265.57121,114.62548 L 280.29796,108.17925 L 280.17063,88.240428 L 253.90096,87.497618 z"
       id="path3252"
       sodipodi:nodetypes="ccccccccccccccccc" />
    <path
       style="fill:#000000;fill-rule:evenodd;stroke:none;stroke-width:0.37391347px;stroke-linecap:butt;stroke-linejoin:miter;stroke-opacity:1"
       d="M 438.3103,75.285408 L 438.13647,68.238768 L 441.37002,68.385708 L 441.3564,87.120108 L 438.55996,87.063268 L 438.51991,79.468778 L 431.97231,79.228088 L 432.21984,102.48479 L 428.25695,102.48994 L 428.22584,75.215258 L 438.3103,75.285408 z"
       id="path3254"
       sodipodi:nodetypes="ccccccccccc" />
    <path
       style="fill:#000000;fill-rule:evenodd;stroke:none;stroke-width:0.37391347px;stroke-linecap:butt;stroke-linejoin:miter;stroke-opacity:1"
       d="M 438.68052,49.680878 L 438.67158,57.750758 L 460.60251,69.174238 L 461.0437,83.670298 L 446.17814,91.450418 L 446.17814,98.35012 L 438.3103,98.15299 L 438.30623,101.04548 L 446.17814,101.30714 L 446.10018,106.79515 L 472.62284,121.41483 L 477.64953,118.06355 L 448.36365,102.88421 L 448.2638,92.356108 L 466.72197,83.762178 L 466.7313,64.924388 L 438.68052,49.680878 z"
       id="path3256"
       sodipodi:nodetypes="ccccccccccccccccc" />
    <path
       style="fill:#000000;fill-rule:evenodd;stroke:none;stroke-width:1px;stroke-linecap:butt;stroke-linejoin:miter;stroke-opacity:1"
       d="M 667.46621,60.403738 L 667.46621,50.752458 L 678.38601,52.276348 L 677.17271,123.39102 L 663.82631,120.85122 L 665.64631,73.610748 L 643.19997,71.578898 L 641.98668,61.419658 L 667.46621,60.403738 z"
       id="path3258" />
    <path
       style="fill:#000000;fill-rule:evenodd;stroke:none;stroke-width:1px;stroke-linecap:butt;stroke-linejoin:miter;stroke-opacity:1"
       d="M 697.19231,54.308198 L 697.79891,106.62828 L 708.71881,104.08847 L 708.71881,80.214258 L 719.03191,79.198328 L 719.03191,68.023168 L 708.11211,69.039098 L 708.11211,54.816158 L 697.19231,54.308198 z"
       id="path3260" />
    <path
       style="fill:#000000;fill-rule:evenodd;stroke:none;stroke-width:0.7052753px;stroke-linecap:butt;stroke-linejoin:miter;stroke-opacity:1"
       d="M 508.5118,87.860208 L 508.19165,60.019808 L 500.91425,60.110798 L 500.48607,69.776468 L 482.20313,92.758308 L 490.11131,113.26774 L 509.80743,119.35354 L 532.28948,113.72151 L 542.12167,92.953448 L 521.46512,69.849518 L 521.25143,59.821068 L 513.65466,59.828258 L 515.36342,87.762028 L 522.42714,87.669848 L 522.10858,75.215728 L 537.4165,92.864848 L 530.1486,111.22636 L 510.45008,116.23937 L 492.03851,110.51158 L 487.11407,93.220448 L 500.05788,75.862248 L 500.48686,87.856618 L 508.5118,87.860208 z"
       id="path3262"
       sodipodi:nodetypes="ccccccccccccccccccccccc" />
    <path
       style="fill:#000000;fill-rule:evenodd;stroke:none;stroke-width:0.62174356px;stroke-linecap:butt;stroke-linejoin:miter;stroke-opacity:1"
       d="M 320.48694,52.750688 L 321.28156,55.748918 L 298.63482,65.942898 L 298.63482,77.635998 L 326.50429,85.985208 L 326.84392,95.32557 L 340.0641,95.57955 L 339.95519,97.72415 L 327.24123,98.02397 L 326.84392,102.82115 L 302.60793,116.31318 L 300.8521,113.20219 L 320.88425,100.72238 L 319.77137,87.470088 L 290.6886,79.135118 L 290.6886,73.738298 L 280.90748,73.854758 L 280.37988,69.128198 L 291.06453,69.219888 L 291.36786,63.844138 L 320.48694,52.750688 z"
       id="path2479"
       sodipodi:nodetypes="ccccccccccccccccccccc" />
    <path
       style="fill:#000000;fill-rule:evenodd;stroke:none;stroke-width:0.54338843px;stroke-linecap:butt;stroke-linejoin:miter;stroke-opacity:1"
       d="M 345.13512,62.301598 L 344.83179,70.887648 L 338.05859,70.723088 L 338.00383,57.516178 L 378.32073,57.617238 L 377.9426,112.60374 L 374.06257,112.63742 L 373.28112,62.120198 L 345.13512,62.301598 z"
       id="path2481"
       sodipodi:nodetypes="ccccccccc" />
    <path
       style="fill:#000000;fill-rule:evenodd;stroke:none;stroke-width:0.54338843px;stroke-linecap:butt;stroke-linejoin:miter;stroke-opacity:1"
       d="M 379.87413,50.902358 L 379.91629,65.539858 L 412.4919,65.747178 L 412.37186,59.742388 L 386.88537,59.619278 L 386.92856,51.046188 L 379.87413,50.902358 z"
       id="path2483"
       sodipodi:nodetypes="ccccccc" />
    <path
       id="path2485"
       d="M 566.07629,113.81794 L 561.03983,113.83596 L 560.80441,67.738728 L 555.17809,67.612868 L 555.16893,63.373328 L 565.8945,63.373328 L 566.00174,67.379538 L 573.837,67.585998 L 574.76034,80.618538 L 592.61753,102.90444 L 592.61753,88.353108 L 594.14253,88.383728 L 594.07185,83.017628 L 597.16224,83.017628 L 598.55118,114.03359 L 595.34435,114.06045 L 594.98077,108.9675 L 591.42861,108.75672 L 591.345,106.05723 L 574.44383,85.891818 L 574.85843,105.35654 L 565.881,105.34113 L 566.07629,113.81794 z"
       style="fill:#000000;fill-rule:evenodd;stroke:none;stroke-width:0.37824497px;stroke-linecap:butt;stroke-linejoin:miter;stroke-opacity:1"
       sodipodi:nodetypes="ccccccccccccccccccccccc" />
    <path
       sodipodi:nodetypes="ccccccccccccccccccccccc"
       style="fill:#000000;fill-rule:evenodd;stroke:none;stroke-width:0.37824497px;stroke-linecap:butt;stroke-linejoin:miter;stroke-opacity:1"
       d="M 164.13126,112.02203 L 159.09477,112.04004 L 158.8594,65.942808 L 153.23308,65.816948 L 153.2239,61.577408 L 163.94945,61.577408 L 164.05669,65.583618 L 171.89195,65.790078 L 172.81529,78.822618 L 190.67249,101.10852 L 190.67249,86.557198 L 192.19749,86.587808 L 192.12679,81.221708 L 195.21719,81.221708 L 196.60613,112.23768 L 193.39931,112.26453 L 193.03573,107.17158 L 189.48357,106.96081 L 189.39995,104.26131 L 172.49878,84.095908 L 172.91338,103.56062 L 163.93596,103.54521 L 164.13126,112.02203 z"
       id="path2487" />
  </g>
</svg>
