<?xml version="1.0" encoding="UTF-8" standalone="no"?>
<!-- Created with Inkscape (http://www.inkscape.org/) -->

<svg
   xmlns:dc="http://purl.org/dc/elements/1.1/"
   xmlns:cc="http://creativecommons.org/ns#"
   xmlns:rdf="http://www.w3.org/1999/02/22-rdf-syntax-ns#"
   xmlns:svg="http://www.w3.org/2000/svg"
   xmlns="http://www.w3.org/2000/svg"
   xmlns:sodipodi="http://sodipodi.sourceforge.net/DTD/sodipodi-0.dtd"
   xmlns:inkscape="http://www.inkscape.org/namespaces/inkscape"
   version="1.1"
   width="800"
   height="480"
   id="svg2"
   inkscape:version="0.47 r22583"
   sodipodi:docname="imagem6.svg">
  <metadata
     id="metadata25">
    <rdf:RDF>
      <cc:Work
         rdf:about="">
        <dc:format>image/svg+xml</dc:format>
        <dc:type
           rdf:resource="http://purl.org/dc/dcmitype/StillImage" />
      </cc:Work>
    </rdf:RDF>
  </metadata>
  <sodipodi:namedview
     pagecolor="#ffffff"
     bordercolor="#666666"
     borderopacity="1"
     objecttolerance="10"
     gridtolerance="10"
     guidetolerance="10"
     inkscape:pageopacity="0"
     inkscape:pageshadow="2"
     inkscape:window-width="1280"
     inkscape:window-height="725"
     id="namedview23"
     showgrid="false"
     inkscape:zoom="0.5"
     inkscape:cx="1.1642924"
     inkscape:cy="126.99395"
     inkscape:window-x="0"
     inkscape:window-y="24"
     inkscape:window-maximized="1"
     inkscape:current-layer="svg2"
     showguides="true"
     inkscape:guide-bbox="true" />
  <defs
     id="defs6">
    <inkscape:perspective
       sodipodi:type="inkscape:persp3d"
       inkscape:vp_x="0 : 240 : 1"
       inkscape:vp_y="0 : 1000 : 0"
       inkscape:vp_z="800 : 240 : 1"
       inkscape:persp3d-origin="400 : 160 : 1"
       id="perspective27" />
  </defs>
  <rect
     width="800"
     height="480"
     x="0"
     y="0"
     id="rect3600"
     style="fill:rgb(128, 0, 0);fill-opacity:1;fill-rule:nonzero;stroke:none" />
  <path
     d="M 494.26764,210.59232 0,60 0,480 545,480 494.26764,210.59232 z"
     id="path2824"
     style="fill:rgb(72, 55, 55);fill-opacity:1;fill-rule:nonzero;stroke:none" />
  <path
     d="M 494.26764,210.59232 800,205 l 0,275 -255,0 -50.73236,-269.40768 z"
     id="path2826"
     style="fill:rgb(48, 42, 37);fill-opacity:1;fill-rule:nonzero;stroke:none" />
  <path
     style="fill:#ff9955;stroke:none;stroke-width:1px;stroke-linecap:butt;stroke-linejoin:miter;stroke-opacity:1"
     d="M 362,-2.0000003 357,38 l 76,37 -19,31 63,20 64.5,74.5 L 786.00661,183.61861 801,205 800,-1.0000003 l -438,-1 z"
     id="path3601"
     sodipodi:nodetypes="cccccccccc" />
  <path
     d="M 470,230 0,100 0,450 510,460 470,230 z"
     id="path3625"
     style="fill:rgb(72, 55, 55);fill-opacity:1;fill-rule:nonzero;stroke:none" />
  <path
     style="fill:#000000;stroke:none"
     d="M 362,-4.0000002 356,38 390,53 800.25,8.2499999 l 0.25,-9.5000001 -438.5,-2.75 z"
     id="path3605"
     sodipodi:nodetypes="cccccc" />
  <path
     style="fill:#552200;stroke:none;stroke-width:1px;stroke-linecap:butt;stroke-linejoin:miter;stroke-opacity:1"
     d="M 393,52 432,74 800.15136,18.448536 801,7.9999999 393,52 z"
     id="path3607"
     sodipodi:nodetypes="ccccc" />
  <path
     style="fill:#803300;stroke:none"
     d="m 432,71 -18,37 37,9 L 800.23545,37.137837 800,18 432,71 z"
     id="path3609"
     sodipodi:nodetypes="cccccc" />
  <path
     style="fill:#aa4400;stroke:none"
     d="M 443,115 479.25,125.5 490,147 801,59 800.74567,36.32051 443,115 z"
     id="path3612"
     sodipodi:nodetypes="cccccc" />
  <path
     style="fill:#d45500;stroke:none"
     d="m 490,146.75 18.75,32.5 291.5,-104.25 0.5,-16.25 -310.75,88 z"
     id="path3614"
     sodipodi:nodetypes="ccccc" />
  <path
     style="fill:#ff6600;stroke:none"
     d="M 508.75,178.75 522,201.75 801,91 800,74 508.75,178.75 z"
     id="path3616"
     sodipodi:nodetypes="ccccc" />
  <path
     style="fill:#ff7f2a;stroke:none;stroke-width:1px;stroke-linecap:butt;stroke-linejoin:miter;stroke-opacity:1"
     d="M 520.5,201.25 556,198.75 802,139 800.5,90.5 520.5,201.25 z"
     id="path3618"
     sodipodi:nodetypes="ccccc" />
  <path
     style="fill:#ffffff;stroke:none;stroke-width:1px;stroke-linecap:butt;stroke-linejoin:miter;stroke-opacity:1;opacity:0.29999999999999999"
     d="m 521.1377,202.10703 264.45794,-18.73833 17.67767,23.68808 -19.09189,-20.50609 -264.85498,18.36245 1.81126,-2.80611 z"
     id="path3620"
     sodipodi:nodetypes="cccccc" />
  <path
     d="m 625,120 0,90 85,0 -5,-85 -80,-5 z"
     id="path3602"
     style="fill:#280b0b;fill-opacity:1;fill-rule:nonzero;stroke:none" />
  <path
     d="M 730,142.80419 745,210 709.5,209.5 705,125 l 25,17.80419 z"
     id="path3604"
     style="fill:#aa4400;fill-opacity:1;fill-rule:nonzero;stroke:none"
     sodipodi:nodetypes="ccccc" />
  <path
     d="m 575,205 10,10 2.95929,15 2.04071,15 -5,10 2.60574,10 L 595,275 592.90904,290 595,300 595,290 597.32845,275 590,265 587.7019,255 592.55548,245 590,225 l 5,-10 15,-10 -35,0 z"
     id="path3606"
     style="fill:rgb(106, 0, 0);fill-opacity:1;fill-rule:nonzero;stroke:none" />
  <path
     style="fill:#ffb380;stroke:none;stroke-width:1px;stroke-linecap:butt;stroke-linejoin:miter;stroke-opacity:1;opacity:0.20000000000000001"
     d="M 446.89149,195.74307 323.85491,252.31162 175.36248,232.51263 124.45079,289.08117 1.4142136,339.99286 0,480 323.85491,478.58579 499.21739,214.12785 446.89149,195.74307 z"
     id="path3634" />
  <path
     d="M 414.8949,180.18672 392.62104,185 370,180 l -10,5 0,15 10,30 5,7.63915 L 372.64527,205 375,200 l 0,10 2.24147,30 7.75853,10 0,10 -2.98556,-10 -9.36917,-12.53763 L 365,225 355,200 348.07331,185 335,170 305,150 414.8949,180.18672 z"
     id="path3608"
     style="fill:rgb(106, 0, 0);fill-opacity:1;fill-rule:nonzero;stroke:none" />
  <path
     d="m 675,370 0,85 5,15 5,10 40,0 -5,-10 -5,-15 0,-75 -40,-10 z"
     id="path3611"
     style="fill:#280b0b;fill-opacity:1;fill-rule:nonzero;stroke:none" />
  <path
     d="m 800,380 0,100 -75,0 -5,-10 -5,-15 0,-75 85,0 z"
     id="path3613"
     style="fill:#501616;fill-opacity:1;fill-rule:nonzero;stroke:none" />
  <path
     d="m 800,380 0,-15 -145,0 20,5 40,10 85,0 z"
     id="path3615"
     style="fill:#550000;fill-opacity:1;fill-rule:nonzero;stroke:none" />
  <path
     d="m 625,170 62,-5 3,-1 -5,-1 0,-12 -2,-3 -18,-1 -27,0 -1,2 -12,0 0,21 z"
     id="path3617"
     style="fill:rgb(106, 0, 0);fill-opacity:0.53807099999999997;fill-rule:nonzero;stroke:none" />
  <path
     d="m 627,151 0,17 15,-2 1,-1 27,-1 12,0 0,-12 -1,-2 -29,0 -25,1 z"
     id="path3619"
     style="fill:rgb(0, 176, 179);fill-opacity:0.53807099999999997;fill-rule:nonzero;stroke:none" />
  <path
     d="m 520,230 280,0 0,115 -145,0 -15,20 15,20 0,75 -95,0 -40,-230 z"
     id="path3627"
     style="fill:rgb(32, 28, 25);fill-opacity:0.52791900000000003;fill-rule:nonzero;stroke:none" />
  <path
     d="M 470,230 0,100 0,85 l 490,145 -20,0 z"
     id="path3629"
     style="fill:rgb(23, 18, 18);fill-opacity:0.33502500000000002;fill-rule:nonzero;stroke:none" />
  <path
     d="m 470,230 40,230 20,0 -40,-230 -20,0 z"
     id="path3631"
     style="fill:rgb(23, 18, 18);fill-opacity:0.33502500000000002;fill-rule:nonzero;stroke:none" />
  <path
     style="fill:#ffb380;stroke:none;stroke-width:1px;stroke-linecap:butt;stroke-linejoin:miter;stroke-opacity:1"
     d="M 339,1.9999997 351,45 l 54,39 9,30 52,18 50.5,58 -37.5,-65 -64,-18 19,-34 -76,-36 3,-39.0000003 -22,4 z"
     id="path3603"
     sodipodi:nodetypes="cccccccccccc" />
  <path
     d="M 405.5,480.75 395,450 l -35,-20 -25,-20 -10,-10 -15,-25 -10,-35 -10,-15 15,5 -5,-5 -10,-5 5,0 0,-5 10,0 -10,-10 -15,-10 -10,-2 -15,-3 -45,-12 -17,-2 -11,3 -5,-6 -6,10 -3,14 0,13 2,10 6,8 5,6 5,10 1,9 -2,10 -5,17 -5,13 -3,13 -5,16 -4,15 -3,18 1.5,15 3.5,10 240.5,0.75 z"
     id="path3621"
     style="fill:#5d0000;fill-opacity:1;fill-rule:nonzero;stroke:none" />
  <path
     d="m 270,290 15,-10 0,-10 -5,-10 -5,-15 -5,-20 -35,0 -15,15 -5,15 -5,20 0,3 45,12 15,3 0,-3 z"
     id="path3623"
     style="fill:#460000;fill-opacity:1;fill-rule:nonzero;stroke:none" />
  <path
     style="fill:#000000;stroke:none;stroke-width:1px;stroke-linecap:butt;stroke-linejoin:miter;stroke-opacity:1"
     d="m 234.75945,225.08801 18.73833,7.07106 -6.71751,15.2028 7.77817,42.07285 -20.5061,2.12132 -7.42462,25.8094 -4.94974,14.49569 5.3033,22.27386 0,19.44544 9.89949,21.56676 -16.26346,27.22361 4.24265,27.22361 3.53553,16.97056 7.07107,13.78858 -70.71068,-1.41421 -1.76777,-11.31371 -1.76776,-13.43503 5.65685,-24.04163 10.96016,-41.36574 8.83883,-37.12311 -1.06066,-9.8995 -7.42462,-12.37436 -8.48528,-9.54595 -2.12132,-14.49569 1.76776,-14.14213 6.71752,-13.43503 5.3033,4.94975 13.43503,-4.5962 15.20279,0 0,-1.41421 10.25305,-36.06245 14.49569,-15.55634 z"
     id="path3636"
     sodipodi:nodetypes="cccccccccccccccccccccccccccccccc" />
  <path
     style="fill:#000000;stroke:none;stroke-width:1px;stroke-linecap:butt;stroke-linejoin:miter;stroke-opacity:1;opacity:0.40000000000000002"
     d="m 253.01555,288.45249 -19.79899,3.25 -6.94239,24.95584 -6.13604,13.34925 6.42893,46.5698 1.82843,0.89214 8.1495,17.13477 -18.43503,28.69723 7.57842,42.8137 9.19239,14.84189 L 281.4285,480 l -21.2132,-56.56854 -2.82843,-29.69849 -11.31371,-51.61879 0,-19.79899 0,-23.33453 20.5061,-6.36396 -9.8995,-43.84062 2.12132,-16.97056 -7.07107,1.41421 -4.94974,14.84925 6.23528,40.38351 z"
     id="path3638"
     sodipodi:nodetypes="cccccccccccccccccccccc" />
  <path
     style="fill:#000000;stroke:none;stroke-width:1px;stroke-linecap:butt;stroke-linejoin:miter;stroke-opacity:1;opacity:0.59999999999999998"
     d="m 0,61.392785 -1.4142136,-62.22539633 111.7228636,0 L 364.8671,103.81919 510.5311,211.29942 489.31789,212.71364 0,61.392785 z"
     id="path3640"
     sodipodi:nodetypes="ccccccc" />
</svg>
