<?xml version="1.0" encoding="UTF-8" standalone="no"?>
<!-- Created with Inkscape (http://www.inkscape.org/) -->
<svg
   xmlns:dc="http://purl.org/dc/elements/1.1/"
   xmlns:cc="http://creativecommons.org/ns#"
   xmlns:rdf="http://www.w3.org/1999/02/22-rdf-syntax-ns#"
   xmlns:svg="http://www.w3.org/2000/svg"
   xmlns="http://www.w3.org/2000/svg"
   xmlns:sodipodi="http://sodipodi.sourceforge.net/DTD/sodipodi-0.dtd"
   xmlns:inkscape="http://www.inkscape.org/namespaces/inkscape"
   width="800"
   height="480"
   id="svg2"
   sodipodi:version="0.32"
   inkscape:version="0.46"
   version="1.0"
   sodipodi:docname="gun_flare_walk3.svg"
   inkscape:output_extension="org.inkscape.output.svg.inkscape">
  <defs
     id="defs4">
    <inkscape:perspective
       sodipodi:type="inkscape:persp3d"
       inkscape:vp_x="0 : 526.18109 : 1"
       inkscape:vp_y="0 : 1000 : 0"
       inkscape:vp_z="744.09448 : 526.18109 : 1"
       inkscape:persp3d-origin="372.04724 : 350.78739 : 1"
       id="perspective10" />
    <inkscape:perspective
       id="perspective2415"
       inkscape:persp3d-origin="372.04724 : 350.78739 : 1"
       inkscape:vp_z="744.09448 : 526.18109 : 1"
       inkscape:vp_y="0 : 1000 : 0"
       inkscape:vp_x="0 : 526.18109 : 1"
       sodipodi:type="inkscape:persp3d" />
    <inkscape:perspective
       id="perspective2460"
       inkscape:persp3d-origin="372.04724 : 350.78739 : 1"
       inkscape:vp_z="744.09448 : 526.18109 : 1"
       inkscape:vp_y="0 : 1000 : 0"
       inkscape:vp_x="0 : 526.18109 : 1"
       sodipodi:type="inkscape:persp3d" />
  </defs>
  <sodipodi:namedview
     id="base"
     pagecolor="#ffffff"
     bordercolor="#666666"
     borderopacity="1.0"
     gridtolerance="10000"
     guidetolerance="10"
     objecttolerance="10"
     inkscape:pageopacity="0.0"
     inkscape:pageshadow="2"
     inkscape:zoom="0.24748738"
     inkscape:cx="-673.9839"
     inkscape:cy="142.3256"
     inkscape:document-units="px"
     inkscape:current-layer="layer1"
     showgrid="false"
     inkscape:window-width="1280"
     inkscape:window-height="723"
     inkscape:window-x="0"
     inkscape:window-y="25" />
  <metadata
     id="metadata7">
    <rdf:RDF>
      <cc:Work
         rdf:about="">
        <dc:format>image/svg+xml</dc:format>
        <dc:type
           rdf:resource="http://purl.org/dc/dcmitype/StillImage" />
      </cc:Work>
    </rdf:RDF>
  </metadata>
  <g
     inkscape:label="Layer 1"
     inkscape:groupmode="layer"
     id="layer1">
    <path
       style="fill:#000080;fill-rule:evenodd;stroke:none;stroke-width:1px;stroke-linecap:butt;stroke-linejoin:miter;stroke-opacity:1"
       d="M 488.28493,369.07313 L 499.41571,355.50634 L 521.67706,365.88094 L 523.6414,390.62038 L 516.43911,399.39889 L 496.79668,392.21648 L 488.28493,369.07313 z"
       id="path2545" />
    <path
       style="fill:#000080;fill-rule:evenodd;stroke:none;stroke-width:1px;stroke-linecap:butt;stroke-linejoin:miter;stroke-opacity:1"
       d="M 481.73752,387.4282 L 475.19001,453.66605 L 493.52287,472.02112 L 502.68941,466.4348 L 519.05814,398.60086 L 493.13938,392.40181 L 481.73752,387.4282 z"
       id="path2543"
       sodipodi:nodetypes="ccccccc" />
    <path
       style="fill:#000080;fill-rule:evenodd;stroke:none;stroke-width:1px;stroke-linecap:butt;stroke-linejoin:miter;stroke-opacity:1"
       d="M 426.67912,292.38687 L 431.27904,317.86925 C 440.50815,340.68845 472.33512,364.48472 481.77241,388.67929 L 501.39077,396.90894 L 488.12839,367.50602 L 426.67912,292.38687 z"
       id="path2519"
       sodipodi:nodetypes="cccccc" />
    <path
       style="opacity:0.32051284;fill:#ffcc00;fill-opacity:1;fill-rule:evenodd;stroke:none;stroke-width:0.39894184px;stroke-linecap:butt;stroke-linejoin:miter;stroke-opacity:1"
       d="M 380.91879,255.19699 L 386.02069,227.52237 L 418.04919,227.12129 L 423.43449,255.19699 L 416.14609,237.54941 L 391.04159,237.14832 L 381.32369,254.79591 L 380.91879,254.79591 L 380.91879,255.19699 z"
       id="path2466" />
    <path
       id="path2468"
       d="M 380.91739,255.75577 L 386.01959,283.27269 L 418.05019,283.27269 L 423.43589,255.75577 L 416.14699,273.05922 L 391.04079,273.45248 L 381.32229,256.14903 L 380.91739,256.14903 L 380.91739,255.75577 z"
       style="opacity:0.32051284;fill:#ffcc00;fill-opacity:1;fill-rule:evenodd;stroke:none;stroke-width:0.39504597px;stroke-linecap:butt;stroke-linejoin:miter;stroke-opacity:1" />
    <path
       style="fill:#000000;fill-rule:evenodd;stroke:none;stroke-width:1px;stroke-linecap:butt;stroke-linejoin:miter;stroke-opacity:1"
       d="M 1.334191,480.17552 L 1.586291,241.21732 L 30.068691,483.02948 L 402.09179,470.55433 L 772.22829,483.12284 L 801.88749,241.69378 L 802.09179,480.55433 L 1.334191,480.17552 z"
       id="path3166"
       sodipodi:nodetypes="cccccccc" />
    <path
       style="fill:#000000;fill-rule:evenodd;stroke:none;stroke-width:1px;stroke-linecap:butt;stroke-linejoin:miter;stroke-opacity:1"
       d="M 0.091890966,0.55434252 L 400.09179,30.554343 L 800.09179,0.55434252 L 0.091890966,0.55434252 z"
       id="path3168"
       sodipodi:nodetypes="cccc" />
    <path
       style="fill:#000000;fill-rule:evenodd;stroke:none;stroke-width:1px;stroke-linecap:butt;stroke-linejoin:miter;stroke-opacity:1"
       d="M 585.91939,482.15878 L 509.50142,383.85289 L 491.40018,378.92762 L 479.28118,374.21241 L 487.97578,390.47894 L 500.92741,397.0335 L 496.22229,439.04823 L 500.365,459.3665 L 516.64507,461.21556 L 528.67689,481.35312 L 585.91939,482.15878 z"
       id="path3156"
       sodipodi:nodetypes="ccccccccccc" />
    <path
       style="fill:#800080;fill-rule:evenodd;stroke:none;stroke-width:1px;stroke-linecap:butt;stroke-linejoin:miter;stroke-opacity:1"
       d="M 582.94073,480.94585 L 520.38456,402.24102 L 519.38468,418.36528 L 517.74199,431.59894 L 523.14634,415.78656 L 530.28076,429.31338 L 564.06858,465.94677 L 582.94073,480.94585 z"
       id="path3158"
       sodipodi:nodetypes="cccccccc" />
    <path
       style="fill:#800080;fill-rule:evenodd;stroke:none;stroke-width:1px;stroke-linecap:butt;stroke-linejoin:miter;stroke-opacity:1"
       d="M 486.56281,381.17288 L 492.89821,390.96944 L 506.28107,386.05419 L 486.56281,381.17288 z"
       id="path3160" />
    <path
       style="fill:#000026;fill-opacity:1;fill-rule:evenodd;stroke:none;stroke-width:1px;stroke-linecap:butt;stroke-linejoin:miter;stroke-opacity:1"
       d="M 507.58915,458.6743 L 501.5998,457.04655 L 496.54682,438.6335 L 500.65994,401.8293 L 500.60798,431.5895 L 507.58915,458.6743 z"
       id="path3162" />
    <path
       style="fill:#0000ff;fill-rule:evenodd;stroke:none;stroke-width:1px;stroke-linecap:butt;stroke-linejoin:miter;stroke-opacity:1"
       d="M 489.22956,369.21396 L 463.5595,338.17941 L 431.74122,302.77808 L 426.84212,292.76901 L 430.3133,291.60494 L 433.9285,292.76133 L 520.63263,365.78251 L 498.41741,357.05399 L 489.22956,369.21396 z"
       id="path2515"
       sodipodi:nodetypes="ccccccccc" />
    <path
       style="fill:#000000;fill-rule:evenodd;stroke:none;stroke-width:0.88267612px;stroke-linecap:butt;stroke-linejoin:miter;stroke-opacity:1"
       d="M 480.8158,393.73104 L 484.13977,404.25973 L 492.92504,408.95665 L 494.05103,418.77647 L 484.02056,411.83786 L 480.63656,416.32889 L 493.31097,427.20156 L 491.14279,435.0537 L 480.79681,425.27724 L 477.65473,431.82993 L 489.93906,443.38483 L 483.49708,446.37999 L 472.90962,434.68552 L 478.52957,424.43964 L 474.90069,419.42577 L 476.14217,409.28516 L 479.67274,407.6495 L 476.52948,399.44998 L 480.8158,393.73104 z"
       id="path2541"
       sodipodi:nodetypes="ccccccccccccccccccc" />
    <path
       style="fill:#000000;fill-rule:evenodd;stroke:none;stroke-width:1px;stroke-linecap:butt;stroke-linejoin:miter;stroke-opacity:1"
       d="M 478.43105,378.93882 L 472.42335,383.78067 L 474.59016,387.77476 L 482.38573,392.01605 L 482.76466,386.92696 L 478.43105,378.93882 z"
       id="path2547"
       inkscape:transform-center-x="5.628959" />
    <path
       style="opacity:0.09787233;fill:#000000;fill-rule:evenodd;stroke:none;stroke-width:1px;stroke-linecap:butt;stroke-linejoin:miter;stroke-opacity:1"
       d="M 427.04458,292.70106 L 431.90571,303.42283 L 488.8519,368.88211 L 498.11155,357.59602 L 427.04458,292.70106 z"
       id="path2395" />
  </g>
</svg>
