<?xml version="1.0" encoding="UTF-8" standalone="no"?>
<!-- Created with Inkscape (http://www.inkscape.org/) -->
<svg
   xmlns:dc="http://purl.org/dc/elements/1.1/"
   xmlns:cc="http://creativecommons.org/ns#"
   xmlns:rdf="http://www.w3.org/1999/02/22-rdf-syntax-ns#"
   xmlns:svg="http://www.w3.org/2000/svg"
   xmlns="http://www.w3.org/2000/svg"
   xmlns:sodipodi="http://sodipodi.sourceforge.net/DTD/sodipodi-0.dtd"
   xmlns:inkscape="http://www.inkscape.org/namespaces/inkscape"
   width="800"
   height="480"
   id="svg2"
   sodipodi:version="0.32"
   inkscape:version="0.46"
   version="1.0"
   sodipodi:docname="gun_flare_walk2.svg"
   inkscape:output_extension="org.inkscape.output.svg.inkscape">
  <defs
     id="defs4">
    <inkscape:perspective
       sodipodi:type="inkscape:persp3d"
       inkscape:vp_x="0 : 526.18109 : 1"
       inkscape:vp_y="0 : 1000 : 0"
       inkscape:vp_z="744.09448 : 526.18109 : 1"
       inkscape:persp3d-origin="372.04724 : 350.78739 : 1"
       id="perspective10" />
    <inkscape:perspective
       id="perspective2415"
       inkscape:persp3d-origin="372.04724 : 350.78739 : 1"
       inkscape:vp_z="744.09448 : 526.18109 : 1"
       inkscape:vp_y="0 : 1000 : 0"
       inkscape:vp_x="0 : 526.18109 : 1"
       sodipodi:type="inkscape:persp3d" />
    <inkscape:perspective
       id="perspective2460"
       inkscape:persp3d-origin="372.04724 : 350.78739 : 1"
       inkscape:vp_z="744.09448 : 526.18109 : 1"
       inkscape:vp_y="0 : 1000 : 0"
       inkscape:vp_x="0 : 526.18109 : 1"
       sodipodi:type="inkscape:persp3d" />
  </defs>
  <sodipodi:namedview
     id="base"
     pagecolor="#ffffff"
     bordercolor="#666666"
     borderopacity="1.0"
     gridtolerance="10000"
     guidetolerance="10"
     objecttolerance="10"
     inkscape:pageopacity="0.0"
     inkscape:pageshadow="2"
     inkscape:zoom="0.7"
     inkscape:cx="441.69367"
     inkscape:cy="276.39764"
     inkscape:document-units="px"
     inkscape:current-layer="layer1"
     showgrid="false"
     inkscape:window-width="1280"
     inkscape:window-height="723"
     inkscape:window-x="0"
     inkscape:window-y="25" />
  <metadata
     id="metadata7">
    <rdf:RDF>
      <cc:Work
         rdf:about="">
        <dc:format>image/svg+xml</dc:format>
        <dc:type
           rdf:resource="http://purl.org/dc/dcmitype/StillImage" />
      </cc:Work>
    </rdf:RDF>
  </metadata>
  <g
     inkscape:label="Layer 1"
     inkscape:groupmode="layer"
     id="layer1"
     transform="translate(2,0)">
    <path
       style="fill:#000080;fill-rule:evenodd;stroke:none;stroke-width:1px;stroke-linecap:butt;stroke-linejoin:miter;stroke-opacity:1"
       d="M 491.9426,370.53865 L 502.6376,356.97186 L 524.02746,367.34646 L 525.91492,392.0859 L 518.99456,400.86441 L 500.12108,393.682 L 491.9426,370.53865 z"
       id="path2545" />
    <path
       style="fill:#000080;fill-rule:evenodd;stroke:none;stroke-width:1px;stroke-linecap:butt;stroke-linejoin:miter;stroke-opacity:1"
       d="M 485.65158,388.89372 L 479.36036,455.13157 L 496.97552,473.48664 L 505.78315,467.90032 L 521.51105,400.06638 L 496.607,393.86733 L 485.65158,388.89372 z"
       id="path2543"
       sodipodi:nodetypes="ccccccc" />
    <path
       style="fill:#000080;fill-rule:evenodd;stroke:none;stroke-width:1px;stroke-linecap:butt;stroke-linejoin:miter;stroke-opacity:1"
       d="M 432.74865,293.85239 L 437.16852,319.33477 C 446.03633,342.15397 476.61718,365.95024 485.68505,390.14481 L 504.53535,398.37446 L 491.79222,368.97154 L 432.74865,293.85239 z"
       id="path2519"
       sodipodi:nodetypes="cccccc" />
    <path
       style="opacity:0.32051284;fill:#ffcc00;fill-opacity:1;fill-rule:evenodd;stroke:none;stroke-width:0.39894184px;stroke-linecap:butt;stroke-linejoin:miter;stroke-opacity:1"
       d="M 380.75407,256.66251 L 385.85595,228.98789 L 417.88452,228.58681 L 423.26982,256.66251 L 415.9814,239.01493 L 390.87687,238.61384 L 381.15898,256.26143 L 380.75407,256.26143 L 380.75407,256.66251 z"
       id="path2466" />
    <path
       id="path2468"
       d="M 380.75268,257.22129 L 385.85491,284.73821 L 417.88552,284.73821 L 423.27122,257.22129 L 415.9823,274.52474 L 390.87614,274.918 L 381.15762,257.61455 L 380.75268,257.61455 L 380.75268,257.22129 z"
       style="opacity:0.32051284;fill:#ffcc00;fill-opacity:1;fill-rule:evenodd;stroke:none;stroke-width:0.39504597px;stroke-linecap:butt;stroke-linejoin:miter;stroke-opacity:1" />
    <path
       style="fill:#000000;fill-rule:evenodd;stroke:none;stroke-width:1px;stroke-linecap:butt;stroke-linejoin:miter;stroke-opacity:1"
       d="M 1.1695292,481.64104 L 1.4216092,242.68284 L 29.904029,484.495 L 401.92714,472.01985 L 772.06362,484.58836 L 801.72282,243.1593 L 801.92712,482.01985 L 1.1695292,481.64104 z"
       id="path3166"
       sodipodi:nodetypes="cccccccc" />
    <path
       style="fill:#000000;fill-rule:evenodd;stroke:none;stroke-width:1px;stroke-linecap:butt;stroke-linejoin:miter;stroke-opacity:1"
       d="M -0.0728508,2.019859 L 399.92714,32.019859 L 799.92712,2.019859 L -0.0728508,2.019859 z"
       id="path3168"
       sodipodi:nodetypes="cccc" />
    <path
       style="fill:#000000;fill-rule:evenodd;stroke:none;stroke-width:1px;stroke-linecap:butt;stroke-linejoin:miter;stroke-opacity:1"
       d="M 585.75471,483.6243 L 512.32852,385.31841 L 494.9359,380.39314 L 483.29136,375.67793 L 491.64555,391.94446 L 504.09017,398.49902 L 499.56918,440.51375 L 503.54976,460.83202 L 519.19246,462.68108 L 530.75328,482.81864 L 585.75471,483.6243 z"
       id="path3156"
       sodipodi:nodetypes="ccccccccccc" />
    <path
       style="fill:#800080;fill-rule:evenodd;stroke:none;stroke-width:1px;stroke-linecap:butt;stroke-linejoin:miter;stroke-opacity:1"
       d="M 582.89266,482.41137 L 522.78557,403.70654 L 521.8248,419.8308 L 520.24647,433.06446 L 525.43921,417.25208 L 532.2943,430.7789 L 564.75936,467.41229 L 582.89266,482.41137 z"
       id="path3158"
       sodipodi:nodetypes="cccccccc" />
    <path
       style="fill:#800080;fill-rule:evenodd;stroke:none;stroke-width:1px;stroke-linecap:butt;stroke-linejoin:miter;stroke-opacity:1"
       d="M 490.2879,382.6384 L 496.37533,392.43496 L 509.23421,387.51971 L 490.2879,382.6384 z"
       id="path3160" />
    <path
       style="fill:#000026;fill-opacity:1;fill-rule:evenodd;stroke:none;stroke-width:1px;stroke-linecap:butt;stroke-linejoin:miter;stroke-opacity:1"
       d="M 510.49104,460.13982 L 504.7362,458.51207 L 499.88107,440.09902 L 503.83317,403.29482 L 503.78319,433.05502 L 510.49104,460.13982 z"
       id="path3162" />
    <path
       style="fill:#0000ff;fill-rule:evenodd;stroke:none;stroke-width:1px;stroke-linecap:butt;stroke-linejoin:miter;stroke-opacity:1"
       d="M 492.85025,370.67948 L 468.18514,339.64493 L 437.61262,304.2436 L 432.90533,294.23453 L 436.24054,293.07046 L 439.71419,294.22685 L 523.02391,367.24803 L 501.6784,358.51951 L 492.85025,370.67948 z"
       id="path2515"
       sodipodi:nodetypes="ccccccccc" />
    <path
       style="fill:#000000;fill-rule:evenodd;stroke:none;stroke-width:0.88267612px;stroke-linecap:butt;stroke-linejoin:miter;stroke-opacity:1"
       d="M 484.76592,395.19656 L 487.95978,405.72525 L 496.40104,410.42217 L 497.48294,420.24199 L 487.84521,413.30338 L 484.59362,417.79441 L 496.77192,428.66708 L 494.68863,436.51922 L 484.74765,426.74276 L 481.72853,433.29545 L 493.53202,444.85035 L 487.3422,447.84551 L 477.16928,436.15104 L 482.56913,425.90516 L 479.08235,420.89129 L 480.27527,410.75068 L 483.66763,409.11502 L 480.64742,400.9155 L 484.76592,395.19656 z"
       id="path2541"
       sodipodi:nodetypes="ccccccccccccccccccc" />
    <path
       style="fill:#000000;fill-rule:evenodd;stroke:none;stroke-width:1px;stroke-linecap:butt;stroke-linejoin:miter;stroke-opacity:1"
       d="M 482.4745,380.40434 L 476.70199,385.24619 L 478.78402,389.24028 L 486.27434,393.48157 L 486.63844,388.39248 L 482.4745,380.40434 z"
       id="path2547"
       inkscape:transform-center-x="5.4085867" />
    <path
       style="opacity:0.09787233;fill:#000000;fill-rule:evenodd;stroke:none;stroke-width:1px;stroke-linecap:butt;stroke-linejoin:miter;stroke-opacity:1"
       d="M 433.0998,294.16658 L 437.77067,304.88835 L 492.48743,370.34763 L 501.38449,359.06154 L 433.0998,294.16658 z"
       id="path2395" />
  </g>
</svg>
