<?xml version="1.0" encoding="UTF-8" standalone="no"?>
<!-- Created with Inkscape (http://www.inkscape.org/) -->
<svg
   xmlns:dc="http://purl.org/dc/elements/1.1/"
   xmlns:cc="http://creativecommons.org/ns#"
   xmlns:rdf="http://www.w3.org/1999/02/22-rdf-syntax-ns#"
   xmlns:svg="http://www.w3.org/2000/svg"
   xmlns="http://www.w3.org/2000/svg"
   xmlns:sodipodi="http://sodipodi.sourceforge.net/DTD/sodipodi-0.dtd"
   xmlns:inkscape="http://www.inkscape.org/namespaces/inkscape"
   id="svg2"
   sodipodi:version="0.32"
   inkscape:version="0.46"
   width="800"
   height="480"
   version="1.0"
   sodipodi:docname="imagem9a.svg"
   inkscape:output_extension="org.inkscape.output.svg.inkscape">
  <metadata
     id="metadata7">
    <rdf:RDF>
      <cc:Work
         rdf:about="">
        <dc:format>image/svg+xml</dc:format>
        <dc:type
           rdf:resource="http://purl.org/dc/dcmitype/StillImage" />
      </cc:Work>
    </rdf:RDF>
  </metadata>
  <defs
     id="defs5">
    <inkscape:perspective
       sodipodi:type="inkscape:persp3d"
       inkscape:vp_x="0 : 526.18109 : 1"
       inkscape:vp_y="0 : 1000 : 0"
       inkscape:vp_z="744.09448 : 526.18109 : 1"
       inkscape:persp3d-origin="372.04724 : 350.78739 : 1"
       id="perspective9" />
  </defs>
  <sodipodi:namedview
     inkscape:window-height="723"
     inkscape:window-width="1280"
     inkscape:pageshadow="2"
     inkscape:pageopacity="0.0"
     guidetolerance="10.0"
     gridtolerance="10.0"
     objecttolerance="10.0"
     borderopacity="1.0"
     bordercolor="#666666"
     pagecolor="#ffffff"
     id="base"
     showgrid="false"
     inkscape:zoom="0.36386538"
     inkscape:cx="601.29273"
     inkscape:cy="402.7554"
     inkscape:window-x="0"
     inkscape:window-y="25"
     inkscape:current-layer="svg2" />
  <rect
     style="opacity:1;fill:#c83737;stroke:none;stroke-opacity:1"
     id="rect2384"
     width="801.68713"
     height="119.85455"
     x="2.5138605"
     y="367.19473" />
  <rect
     style="opacity:1;fill:#00ffff;stroke:none;stroke-opacity:1"
     id="rect2386"
     width="287.54099"
     height="368.60928"
     x="510.9473"
     y="-1.414584" />
  <path
     style="fill:#004455;fill-rule:evenodd;stroke:none;stroke-width:1px;stroke-linecap:butt;stroke-linejoin:miter;stroke-opacity:1"
     d="M 574.22659,118.71371 L 680.055,67.261378 L 686.29023,75.806505 L 707.11804,68.437116 L 714.20672,82.986331 L 652.4523,106.43889 L 655.41573,122.24095 L 580.46182,127.25884 L 574.22659,118.71371 z"
     id="path2406" />
  <rect
     style="opacity:1;fill:#483737;stroke:none;stroke-opacity:1"
     id="rect2388"
     width="508.43338"
     height="373.13208"
     x="4.418118"
     y="0.84682405" />
  <path
     style="fill:#ffccaa;fill-rule:evenodd;stroke:none;stroke-width:1px;stroke-linecap:butt;stroke-linejoin:miter;stroke-opacity:1"
     d="M 78.683673,7.6310407 L 360.51193,392.07015 L 455.72417,421.46844 L 404.30956,435.03688 L 350.9907,432.77548 L 293.86336,437.29829 L 240.5445,432.77548 L 250.06572,405.63859 L 0.60963492,152.36107 L 0.60963492,0.84682174 L 78.683673,7.6310407 z"
     id="path2390" />
  <path
     style="fill:#ffb380;fill-rule:evenodd;stroke:none;stroke-width:1px;stroke-linecap:butt;stroke-linejoin:miter;stroke-opacity:1"
     d="M 349.08646,367.19468 L 387.17136,360.41046 L 394.78834,398.85437 L 425.25626,353.62624 L 455.72417,380.76312 L 451.91568,428.25266 L 354.79919,392.07015 L 349.08646,367.19468 z"
     id="path2392" />
  <path
     style="fill:#ff9955;fill-rule:evenodd;stroke:none;stroke-width:1px;stroke-linecap:butt;stroke-linejoin:miter;stroke-opacity:1"
     d="M 457.62842,378.50171 L 453.81993,407.9 L 469.05389,435.03688 L 482.3836,425.99126 L 457.62842,378.50171 z"
     id="path2394" />
  <path
     style="fill:#ffccaa;fill-rule:evenodd;stroke:none;stroke-width:1px;stroke-linecap:butt;stroke-linejoin:miter;stroke-opacity:1"
     d="M 242.44874,432.77548 L 170.08744,435.03688 L 183.41715,407.9 L 251.96997,401.11578 L 242.44874,432.77548 z"
     id="path2396" />
  <path
     style="fill:#ffb380;fill-rule:evenodd;stroke:none;stroke-width:1px;stroke-linecap:butt;stroke-linejoin:miter;stroke-opacity:1"
     d="M 629.01046,92.433789 L 610.92013,116.17856 L 596.6383,163.6681 L 588.06919,224.72607 L 584.2607,241.68662 L 588.06919,257.51647 L 592.82981,242.81732 L 590.92556,230.37959 L 599.49466,237.16381 L 600.44679,232.64099 L 595.68617,221.33396 L 604.25528,174.97513 L 625.20197,138.79263 L 629.01046,92.433789 z"
     id="path2398" />
  <path
     style="fill:#ffb380;fill-rule:evenodd;stroke:none;stroke-width:1px;stroke-linecap:butt;stroke-linejoin:miter;stroke-opacity:1"
     d="M 656.62202,100.34871 L 672.80809,146.70755 L 684.23356,171.58302 L 695.65903,202.112 L 699.46752,207.76552 L 695.65903,217.94185 L 688.99417,222.46466 L 696.61115,225.85677 L 703.27601,217.94185 L 706.13238,223.59537 L 708.03662,233.7717 L 701.37177,238.29451 L 711.84511,238.29451 L 714.70148,232.64099 L 714.70148,215.68044 L 706.13238,198.71989 L 688.04205,143.31544 L 685.18568,120.70137 L 669.95173,102.61012 L 656.62202,100.34871 z"
     id="path2400" />
  <path
     style="fill:#16502d;fill-rule:evenodd;stroke:none;stroke-width:1px;stroke-linecap:butt;stroke-linejoin:miter;stroke-opacity:1"
     d="M 629.96259,95.825899 L 625.20197,145.57685 L 630.91471,170.45232 L 629.96259,187.41286 L 649.95716,196.45849 L 657.57414,196.45849 L 671.85598,186.28216 L 665.19112,163.6681 L 671.85598,144.44614 L 658.52626,94.695196 L 653.14823,105.96378 L 645.19655,113.91715 L 637.1035,107.69828 L 629.96259,95.825899 z"
     id="path2402"
     sodipodi:nodetypes="cccccccccccccc" />
  <path
     style="fill:#0b2817;fill-rule:evenodd;stroke:none;stroke-width:1px;stroke-linecap:butt;stroke-linejoin:miter;stroke-opacity:1"
     d="M 631.39077,187.41286 L 620.44136,219.07255 L 618.53711,239.42521 L 620.44136,274.47702 L 619.48924,300.48319 L 621.39348,323.09725 L 618.53711,340.0578 L 621.39348,368.32538 L 641.38806,366.06398 L 637.57957,328.75077 L 636.62744,317.44373 L 639.48381,284.65335 L 649.95716,242.81732 L 663.28687,271.08491 L 673.76021,305.00601 L 674.71233,324.22795 L 680.42507,345.71132 L 686.13781,369.45609 L 703.27601,367.19468 L 699.46752,324.22795 L 694.70691,277.86913 L 688.99417,226.98748 L 677.5687,194.19708 L 672.80809,186.28216 L 655.66989,196.45849 L 650.90928,196.45849 L 631.39077,187.41286 z"
     id="path2404"
     sodipodi:nodetypes="ccccccccccccccccccccccccccc" />
  <path
     style="fill:#ffb380;fill-rule:evenodd;stroke:none;stroke-width:1px;stroke-linecap:butt;stroke-linejoin:miter;stroke-opacity:1"
     d="M 643.2923,40.421434 L 632.81895,49.467061 L 631.86683,69.819722 L 636.62744,98.087306 L 645.19655,103.74082 L 657.57414,91.303085 L 656.62202,55.120578 L 651.8614,40.421434 L 643.2923,40.421434 z"
     id="path2408" />
  <path
     style="fill:#2b1100;fill-rule:evenodd;stroke:none;stroke-width:1px;stroke-linecap:butt;stroke-linejoin:miter;stroke-opacity:1"
     d="M 639.48381,39.290731 L 620.44136,55.120578 L 613.7765,74.342535 L 613.7765,94.695196 L 616.63287,74.342535 L 626.1541,58.512688 L 620.44136,74.342535 L 622.3456,87.910975 L 624.24985,72.081128 L 631.86683,64.166205 L 657.57414,56.251281 L 651.8614,39.290731 L 639.48381,39.290731 z"
     id="path2410" />
  <path
     id="path2418"
     d="M 574.22659,118.71371 L 680.055,67.261378 L 686.29023,75.806505 L 707.11804,68.437116 L 714.20672,82.986331 L 652.4523,106.43889 L 655.41573,122.24095 L 580.46182,127.25884 L 574.22659,118.71371 z"
     style="fill:#004455;fill-rule:evenodd;stroke:none;stroke-width:1px;stroke-linecap:butt;stroke-linejoin:miter;stroke-opacity:1" />
  <path
     id="path2420"
     d="M 629.01046,92.433789 L 610.92013,116.17856 L 596.6383,163.6681 L 588.06919,224.72607 L 584.2607,241.68662 L 588.06919,257.51647 L 592.82981,242.81732 L 590.92556,230.37959 L 599.49466,237.16381 L 600.44679,232.64099 L 595.68617,221.33396 L 604.25528,174.97513 L 625.20197,138.79263 L 629.01046,92.433789 z"
     style="fill:#ffb380;fill-rule:evenodd;stroke:none;stroke-width:1px;stroke-linecap:butt;stroke-linejoin:miter;stroke-opacity:1" />
  <path
     id="path2422"
     d="M 656.62202,100.34871 L 672.80809,146.70755 L 684.23356,171.58302 L 695.65903,202.112 L 699.46752,207.76552 L 695.65903,217.94185 L 688.99417,222.46466 L 696.61115,225.85677 L 703.27601,217.94185 L 706.13238,223.59537 L 708.03662,233.7717 L 701.37177,238.29451 L 711.84511,238.29451 L 714.70148,232.64099 L 714.70148,215.68044 L 706.13238,198.71989 L 688.04205,143.31544 L 685.18568,120.70137 L 669.95173,102.61012 L 656.62202,100.34871 z"
     style="fill:#ffb380;fill-rule:evenodd;stroke:none;stroke-width:1px;stroke-linecap:butt;stroke-linejoin:miter;stroke-opacity:1" />
  <path
     sodipodi:nodetypes="cccccccccccccc"
     id="path2424"
     d="M 629.96259,95.825899 L 625.20197,145.57685 L 630.91471,170.45232 L 629.96259,187.41286 L 649.95716,196.45849 L 657.57414,196.45849 L 671.85598,186.28216 L 665.19112,163.6681 L 671.85598,144.44614 L 658.52626,94.695196 L 653.14823,105.96378 L 645.19655,113.91715 L 637.1035,107.69828 L 629.96259,95.825899 z"
     style="fill:#16502d;fill-rule:evenodd;stroke:none;stroke-width:1px;stroke-linecap:butt;stroke-linejoin:miter;stroke-opacity:1" />
  <path
     sodipodi:nodetypes="ccccccccccccccccccccccccccc"
     id="path2426"
     d="M 631.39077,187.41286 L 620.44136,219.07255 L 618.53711,239.42521 L 620.44136,274.47702 L 619.48924,300.48319 L 621.39348,323.09725 L 618.53711,340.0578 L 621.39348,368.32538 L 641.38806,366.06398 L 637.57957,328.75077 L 636.62744,317.44373 L 639.48381,284.65335 L 649.95716,242.81732 L 663.28687,271.08491 L 673.76021,305.00601 L 674.71233,324.22795 L 680.42507,345.71132 L 686.13781,369.45609 L 703.27601,367.19468 L 699.46752,324.22795 L 694.70691,277.86913 L 688.99417,226.98748 L 677.5687,194.19708 L 672.80809,186.28216 L 655.66989,196.45849 L 650.90928,196.45849 L 631.39077,187.41286 z"
     style="fill:#0b2817;fill-rule:evenodd;stroke:none;stroke-width:1px;stroke-linecap:butt;stroke-linejoin:miter;stroke-opacity:1" />
  <path
     id="path2428"
     d="M 643.2923,40.421434 L 632.81895,49.467061 L 631.86683,69.819722 L 636.62744,98.087306 L 645.19655,103.74082 L 657.57414,91.303085 L 656.62202,55.120578 L 651.8614,40.421434 L 643.2923,40.421434 z"
     style="fill:#ffb380;fill-rule:evenodd;stroke:none;stroke-width:1px;stroke-linecap:butt;stroke-linejoin:miter;stroke-opacity:1" />
  <path
     id="path2430"
     d="M 639.48381,39.290731 L 620.44136,55.120578 L 613.7765,74.342535 L 613.7765,94.695196 L 616.63287,74.342535 L 626.1541,58.512688 L 620.44136,74.342535 L 622.3456,87.910975 L 624.24985,72.081128 L 631.86683,64.166205 L 657.57414,56.251281 L 651.8614,39.290731 L 639.48381,39.290731 z"
     style="fill:#2b1100;fill-rule:evenodd;stroke:none;stroke-width:1px;stroke-linecap:butt;stroke-linejoin:miter;stroke-opacity:1" />
  <path
     id="path3204"
     d="M 629.12597,92.433789 L 610.49131,116.17856 L 595.77974,163.6681 L 586.9528,224.72607 L 583.02971,241.68662 L 586.9528,257.51647 L 591.85666,242.81732 L 589.89512,230.37959 L 598.72206,237.16381 L 599.70283,232.64099 L 594.79897,221.33396 L 603.62592,174.97513 L 625.20289,138.79263 L 629.12597,92.433789 z"
     style="opacity:0.71370963;fill:#000000;fill-rule:evenodd;stroke:none;stroke-width:1px;stroke-linecap:butt;stroke-linejoin:miter;stroke-opacity:1" />
  <path
     id="path3206"
     d="M 655.39103,100.34871 L 671.5771,146.70755 L 683.00257,171.58302 L 694.42804,202.112 L 698.23653,207.76552 L 694.42804,217.94185 L 687.76318,222.46466 L 695.38016,225.85677 L 702.04502,217.94185 L 704.90139,223.59537 L 706.80563,233.7717 L 700.14078,238.29451 L 710.61412,238.29451 L 713.47049,232.64099 L 713.47049,215.68044 L 704.90139,198.71989 L 686.81106,143.31544 L 683.95469,120.70137 L 668.72074,102.61012 L 655.39103,100.34871 z"
     style="opacity:0.71370963;fill:#000000;fill-rule:evenodd;stroke:none;stroke-width:1px;stroke-linecap:butt;stroke-linejoin:miter;stroke-opacity:1" />
  <path
     sodipodi:nodetypes="ccccccccccc"
     id="path3208"
     d="M 628.73159,95.825899 L 623.97098,145.57685 L 629.68372,170.45232 L 628.73159,187.41286 L 648.72617,196.45849 L 656.34315,196.45849 L 670.62499,186.28216 L 663.96013,163.6681 L 670.62499,144.44614 L 657.29527,94.695196 L 628.73159,95.825899 z"
     style="opacity:0.71370963;fill:#000000;fill-rule:evenodd;stroke:none;stroke-width:1px;stroke-linecap:butt;stroke-linejoin:miter;stroke-opacity:1" />
  <path
     sodipodi:nodetypes="ccccccccccccccccccccccccccc"
     id="path3210"
     d="M 630.15978,187.41286 L 619.21037,219.07255 L 617.30612,239.42521 L 619.21037,274.47702 L 618.25825,300.48319 L 620.16249,323.09725 L 617.30612,340.0578 L 620.16249,368.32538 L 640.15707,366.06398 L 636.34858,328.75077 L 635.39645,317.44373 L 638.25282,284.65335 L 648.72617,242.81732 L 662.05588,271.08491 L 672.52922,305.00601 L 673.48134,324.22795 L 679.19408,345.71132 L 684.90682,369.45609 L 702.04502,367.19468 L 698.23653,324.22795 L 693.47592,277.86913 L 687.76318,226.98748 L 676.33771,194.19708 L 671.5771,186.28216 L 654.4389,196.45849 L 649.67829,196.45849 L 630.15978,187.41286 z"
     style="opacity:0.71370963;fill:#000000;fill-rule:evenodd;stroke:none;stroke-width:1px;stroke-linecap:butt;stroke-linejoin:miter;stroke-opacity:1" />
  <path
     id="path3212"
     d="M 642.06131,40.421434 L 631.58796,49.467061 L 630.63584,69.819722 L 635.39645,98.087306 L 643.96556,103.74082 L 656.34315,91.303085 L 655.39103,55.120578 L 650.63041,40.421434 L 642.06131,40.421434 z"
     style="opacity:0.71370963;fill:#000000;fill-rule:evenodd;stroke:none;stroke-width:1px;stroke-linecap:butt;stroke-linejoin:miter;stroke-opacity:1" />
</svg>
