<?xml version="1.0" encoding="UTF-8" standalone="no"?>
<!-- Created with Inkscape (http://www.inkscape.org/) -->

<svg
   xmlns:dc="http://purl.org/dc/elements/1.1/"
   xmlns:cc="http://creativecommons.org/ns#"
   xmlns:rdf="http://www.w3.org/1999/02/22-rdf-syntax-ns#"
   xmlns:svg="http://www.w3.org/2000/svg"
   xmlns="http://www.w3.org/2000/svg"
   xmlns:sodipodi="http://sodipodi.sourceforge.net/DTD/sodipodi-0.dtd"
   xmlns:inkscape="http://www.inkscape.org/namespaces/inkscape"
   id="svg2"
   sodipodi:version="0.32"
   inkscape:version="0.47 r22583"
   width="800"
   height="480"
   version="1.0"
   sodipodi:docname="imagem4b.svg"
   inkscape:output_extension="org.inkscape.output.svg.inkscape">
  <sodipodi:namedview
     inkscape:window-height="725"
     inkscape:window-width="1280"
     inkscape:pageshadow="2"
     inkscape:pageopacity="0.0"
     guidetolerance="10.0"
     gridtolerance="10.0"
     objecttolerance="10.0"
     borderopacity="1.0"
     bordercolor="#666666"
     pagecolor="#ffffff"
     id="base"
     showgrid="false"
     inkscape:zoom="0.72773072"
     inkscape:cx="516.69014"
     inkscape:cy="392.64899"
     inkscape:window-x="0"
     inkscape:window-y="24"
     inkscape:current-layer="svg2"
     inkscape:window-maximized="1" />
  <metadata
     id="metadata7">
    <rdf:RDF>
      <cc:Work
         rdf:about="">
        <dc:format>image/svg+xml</dc:format>
        <dc:type
           rdf:resource="http://purl.org/dc/dcmitype/StillImage" />
      </cc:Work>
    </rdf:RDF>
  </metadata>
  <defs
     id="defs5">
    <inkscape:perspective
       sodipodi:type="inkscape:persp3d"
       inkscape:vp_x="0 : 526.18109 : 1"
       inkscape:vp_y="0 : 1000 : 0"
       inkscape:vp_z="744.09448 : 526.18109 : 1"
       inkscape:persp3d-origin="372.04724 : 350.78739 : 1"
       id="perspective9" />
  </defs>
  <path
     style="fill:#2b1100;stroke:none"
     d="m 3.4328365,270.90973 797.4636835,0 0,212.72005 -797.4636835,0 0,-212.72005 z"
     id="rect3232" />
  <path
     style="fill:#000000;stroke:#000000;stroke-width:1px;stroke-linecap:butt;stroke-linejoin:miter;stroke-opacity:1;opacity:0.3"
     d="M 70.080866,383.81057 710.42761,396.17779 469.46822,271.4578 270.14249,271.5411 94.81529,368.69504 70.080866,383.81057 z"
     id="path3658"
     sodipodi:nodetypes="cccccc" />
  <path
     style="fill:#d45500;stroke:none"
     d="m 1.2630344,0.10577 799.1774256,0 0,150.51263 -799.1774256,0 0,-150.51263 z"
     id="rect3230" />
  <path
     style="fill:#225500;stroke:none"
     d="m 118.55584,-0.9225732 579.56708,0 0,152.9401432 -579.56708,0 0,-152.9401432 z"
     id="rect3222" />
  <path
     style="fill:#008000;fill-rule:evenodd;stroke:none"
     d="M 4.1182373,418.08425 270.0537,271.36489 270.05369,151.0459 2.4047356,9.6369604 4.1182373,418.08425 l 0,0"
     id="path3210"
     sodipodi:nodetypes="ccccc" />
  <path
     style="fill:#008000;fill-rule:evenodd;stroke:none"
     d="m 470.07841,150.87661 -1.12734,121.1494 331.08628,167.95082 0.3175,-380.226193"
     id="path3212"
     sodipodi:nodetypes="cccc" />
  <path
     style="fill:#000000;stroke:#000000;stroke-width:1px;stroke-linecap:butt;stroke-linejoin:miter;stroke-opacity:1;opacity:0.4"
     d="M 472.35879,151.23828 469.95405,291.74355 709.05348,394.80365 655.46223,99.364703 472.35879,151.23828 z"
     id="path3632"
     sodipodi:nodetypes="ccccc" />
  <path
     style="fill:#000000;stroke:#000000;stroke-width:1px;stroke-linecap:butt;stroke-linejoin:miter;stroke-opacity:1;opacity:0.3"
     d="M 475.87045,155.95141 476.11336,270.12146 802.5911,394.49393 801.1205,93.868165 475.87045,155.95141 z"
     id="path3628" />
  <path
     sodipodi:nodetypes="ccccccccc"
     id="path2836"
     d="m 799.42435,85.736827 -326.48819,68.573743 0.45925,114.70675 326.34374,136.87453 -0.5713,-14.54406 -323.48703,-122.832 -0.74492,-112.70065 324.82305,-61.006235 -0.3346,-9.072078 z"
     style="fill:#000000;stroke:#000000;stroke-width:0.77910614000000000px;stroke-linecap:butt;stroke-linejoin:miter;stroke-opacity:1;opacity:0.7" />
  <path
     sodipodi:nodetypes="cccccccc"
     style="fill:#28170b;fill-rule:evenodd;stroke:none"
     d="m 370.20535,326.11653 25.31111,1.99846 32.9135,33.12841 -0.0831,25.77191 -15.72977,14.07558 -24.67443,-12.1381 -24.67442,-42.48338 6.93716,-20.35288 0,0"
     id="path3214" />
  <path
     sodipodi:nodetypes="cccccccccc"
     style="fill:#0000ff;fill-rule:evenodd;stroke:none"
     d="m 370.12219,325.83464 62.01867,-16.26969 17.3215,9.04782 12.66982,60.89879 -9.76191,16.72409 -39.75323,4.85524 15.07881,-13.35191 -1.37081,-27.91764 -30.15762,-31.55908 -26.04523,-2.42762 0,0"
     id="path3216" />
  <path
     sodipodi:nodetypes="ccccccccccccccc"
     style="fill:#000080;fill-rule:evenodd;stroke:none"
     d="m 431.80825,310.0551 26.04523,-24.27622 31.52843,-33.9867 57.57365,-8.49667 54.83206,6.06905 19.19121,32.77289 8.22481,13.35192 15.07882,38.84194 -34.51949,41.99323 -26.61304,12.05184 -81.43081,10.28689 -52.9766,-1.85752 13.22336,-17.56345 -13.70801,-60.69053 -16.44962,-8.49667 0,0"
     id="path3218" />
  <path
     sodipodi:nodetypes="ccccccc"
     style="fill:#000080;fill-rule:evenodd;stroke:none"
     d="m 627.36246,291.8732 33.67369,9.19508 11.38218,41.72397 -12.47498,24.43394 -53.0455,9.91874 37.7861,-42.96088 -17.32149,-42.31085 0,0"
     id="path3220" />
  <path
     style="fill:#280b0b;stroke:none"
     d="m 270.05371,151.04591 201.5078,0 0,41.26952 -201.5078,0 0,-41.26952 z"
     id="rect3224" />
  <path
     style="fill:#552200;stroke:none"
     d="m 269.88232,241.17139 200.67272,0.97166 -0.36437,29.07015 -200.30835,0 0,-30.04181 z"
     id="rect3226"
     sodipodi:nodetypes="ccccc" />
  <path
     style="fill:#502d16;stroke:none"
     d="m 270.05371,191.70862 201.69414,0.48583 -1.21457,50.19081 -200.47957,0 0,-50.67664 z"
     id="rect3228"
     sodipodi:nodetypes="ccccc" />
  <path
     sodipodi:nodetypes="ccccccc"
     id="path2477"
     d="m 448.68603,396.8958 13.19663,-17.79573 111.78419,-46.52975 70.63795,1.28744 -38.04513,44.09484 -23.26328,10.40682 -82.02725,10.72867"
     style="opacity:0.66527201000000002;fill:#000000;fill-rule:evenodd;stroke:none" />
  <path
     sodipodi:nodetypes="cccc"
     id="path2479"
     d="m 490.3068,253.17815 85.54098,79.39217 -30.77537,-90.54999 -54.76561,11.15782 0,0"
     style="opacity:0.05645160000000000;fill:#ff2a2a;fill-rule:evenodd;stroke:none" />
  <path
     sodipodi:nodetypes="ccccc"
     id="path2481"
     d="m 546.04172,243.73692 56.70422,6.4372 41.68003,83.46906 -67.24539,-0.96557 -31.13886,-88.94069 0,0"
     style="opacity:0.05645160000000000;fill:#ffd5d5;fill-rule:evenodd;stroke:none" />
  <path
     sodipodi:nodetypes="ccccc"
     id="path3253"
     d="m 427.78676,387.50112 34.28909,-8.36837 -13.32791,17.70232 -36.22769,4.18418 15.26651,-13.51813 0,0"
     style="opacity:0.54838712000000001;fill:#000000;fill-rule:evenodd;stroke:none" />
  <path
     sodipodi:nodetypes="ccccc"
     id="path3255"
     d="m 606.86548,377.2016 37.56049,-42.80741 28.35211,7.93922 -12.60095,24.78324 -53.31165,10.08495 0,0"
     style="opacity:0.54838712000000001;fill:#000000;fill-rule:evenodd;stroke:none" />
  <path
     style="opacity:0.66527201000000002;fill:#000000;fill-rule:evenodd;stroke:none"
     d="m 401.20228,401.25858 24.4323,16.2925 197.10307,22.21288 119.31682,-19.87611 -71.90346,-38.78594 -41.14232,-5.42224 -140.64004,9.57364 -87.16637,16.00527 0,0"
     id="path3600"
     sodipodi:nodetypes="cccccccc" />
  <path
     style="opacity:0.54838712000000001;fill:#000000;fill-rule:evenodd;stroke:none"
     d="m 605.89383,378.17326 37.97575,-44.50782 28.66559,8.25458 -12.74028,25.76769 -53.90106,10.48555 0,0"
     id="path3646"
     sodipodi:nodetypes="ccccc" />
  <path
     style="opacity:0.54838712000000001;fill:#000000;fill-rule:evenodd;stroke:none"
     d="m 427.78676,387.50112 34.28909,-8.36837 -13.32791,17.70232 -36.22769,4.18418 15.26651,-13.51813 0,0"
     id="path3648"
     sodipodi:nodetypes="ccccc" />
  <path
     style="fill:#000000;stroke:none;stroke-width:1px;stroke-linecap:butt;stroke-linejoin:miter;stroke-opacity:1;opacity:0.29999999999999999"
     d="m 396.35137,328.56082 51.8314,-10.25379 127.03991,15.94398 -113.48551,44.78224 -35.58093,-19.63191 -29.80487,-30.84052 z"
     id="path3654"
     sodipodi:nodetypes="cccccc" />
  <path
     style="fill:#000000;stroke:none;stroke-width:1px;stroke-linecap:butt;stroke-linejoin:miter;stroke-opacity:1;opacity:0.20000000000000001"
     d="m 426.07288,359.28346 1.45749,28.03585 34.5234,-8.25911 -35.98089,-19.77674 z"
     id="path3656"
     sodipodi:nodetypes="cccc" />
  <path
     style="fill:#000000;stroke:#000000;stroke-width:1px;stroke-linecap:butt;stroke-linejoin:miter;stroke-opacity:1;opacity:0.7"
     d="M 1.3741346,36.15451 260.39852,155.70422 261.08558,260.13846 2.7482693,376.25283 3.4353366,356.32788 258.33731,259.45139 257.99378,157.76543 0.97165993,48.582993 1.3741346,36.15451 z"
     id="path2834"
     sodipodi:nodetypes="ccccccccc" />
  <path
     style="opacity:0.4;fill:#000000;stroke:none"
     d="m 149.62804,13.603233 -3.87905,69.95952 124.12956,67.044537 201.71052,0 170.67814,-48.583 -2.90929,-92.3076971 -489.72988,3.8866401 z"
     id="path3616" />
  <path
     style="fill:#000000;stroke:none;stroke-width:1px;stroke-linecap:butt;stroke-linejoin:miter;stroke-opacity:1;opacity:0.69999999999999996"
     d="m 148.66397,14.574896 27.20648,23.319838 441.1336,-3.88664 22.68666,-24.1197313 -491.02674,4.6865333 z"
     id="path3618"
     sodipodi:nodetypes="ccccc" />
  <path
     style="opacity:0.2;fill:#000000;fill-opacity:1;stroke:none"
     d="m 150.60729,15.546555 27.20648,21.376519 -4.8583,60.242918 -26.23482,-13.60324 3.88664,-68.016197 z"
     id="path3620" />
  <path
     style="opacity:0.2;fill:#000000;stroke:none"
     d="m 617.57324,33.321027 21.71499,-23.03019 5.89396,90.761793 -27.20648,8.74494 -0.40247,-76.476543 z"
     id="path3622"
     sodipodi:nodetypes="ccccc" />
  <path
     style="fill:#008000;stroke:#000000;stroke-width:1px;stroke-linecap:butt;stroke-linejoin:miter;stroke-opacity:1"
     d="M 2.1100303,49.326671 4.455825,353.4129 257.65025,259.45139 257.30671,157.76543 2.1100303,49.326671 z"
     id="path3624"
     sodipodi:nodetypes="ccccc" />
  <path
     sodipodi:nodetypes="ccccc"
     id="path3626"
     d="M 2.1100303,49.326671 4.455825,353.4129 257.65025,259.45139 257.30671,157.76543 2.1100303,49.326671 z"
     style="fill:#000000;stroke:#000000;stroke-width:1px;stroke-linecap:butt;stroke-linejoin:miter;stroke-opacity:1;opacity:0.3" />
  <path
     style="fill:#000000;stroke:#000000;stroke-width:1px;stroke-linecap:butt;stroke-linejoin:miter;stroke-opacity:1;opacity:0.4"
     d="M 130.88632,77.37855 67.3326,386.55885 273.45279,269.7574 272.07866,146.08528 130.88632,77.37855 z"
     id="path3630"
     sodipodi:nodetypes="ccccc" />
</svg>
