<?xml version="1.0" encoding="UTF-8" standalone="no"?>
<!-- Created with Inkscape (http://www.inkscape.org/) -->
<svg
   xmlns:dc="http://purl.org/dc/elements/1.1/"
   xmlns:cc="http://creativecommons.org/ns#"
   xmlns:rdf="http://www.w3.org/1999/02/22-rdf-syntax-ns#"
   xmlns:svg="http://www.w3.org/2000/svg"
   xmlns="http://www.w3.org/2000/svg"
   xmlns:sodipodi="http://sodipodi.sourceforge.net/DTD/sodipodi-0.dtd"
   xmlns:inkscape="http://www.inkscape.org/namespaces/inkscape"
   id="svg2"
   sodipodi:version="0.32"
   inkscape:version="0.46"
   width="800"
   height="480"
   version="1.0"
   sodipodi:docname="imagem9b.svg"
   inkscape:output_extension="org.inkscape.output.svg.inkscape">
  <metadata
     id="metadata7">
    <rdf:RDF>
      <cc:Work
         rdf:about="">
        <dc:format>image/svg+xml</dc:format>
        <dc:type
           rdf:resource="http://purl.org/dc/dcmitype/StillImage" />
      </cc:Work>
    </rdf:RDF>
  </metadata>
  <defs
     id="defs5">
    <inkscape:perspective
       sodipodi:type="inkscape:persp3d"
       inkscape:vp_x="0 : 526.18109 : 1"
       inkscape:vp_y="0 : 1000 : 0"
       inkscape:vp_z="744.09448 : 526.18109 : 1"
       inkscape:persp3d-origin="372.04724 : 350.78739 : 1"
       id="perspective9" />
  </defs>
  <sodipodi:namedview
     inkscape:window-height="723"
     inkscape:window-width="1280"
     inkscape:pageshadow="2"
     inkscape:pageopacity="0.0"
     guidetolerance="10.0"
     gridtolerance="10.0"
     objecttolerance="10.0"
     borderopacity="1.0"
     bordercolor="#666666"
     pagecolor="#ffffff"
     id="base"
     showgrid="false"
     inkscape:zoom="0.36386538"
     inkscape:cx="601.29273"
     inkscape:cy="334.16807"
     inkscape:window-x="0"
     inkscape:window-y="25"
     inkscape:current-layer="svg2" />
  <path
     style="fill:#803300;fill-rule:evenodd;stroke:none;stroke-width:1px;stroke-linecap:butt;stroke-linejoin:miter;stroke-opacity:1"
     d="M 25.900187,275.81454 L 85.764939,238.23506 L 153.4808,237.34031 L 190.77356,231.07706 L 226.10361,240.91931 L 298.72639,253.4458 L 385.08867,253.4458 L 627.49183,269.55129 L 808.06743,290.13053 L 809.04886,479.8174 L -2.5601046,478.92265 L -1.5787152,269.55129 L 25.900187,275.81454 z"
     id="path2448" />
  <path
     style="fill:#483737;fill-rule:evenodd;stroke:none;stroke-width:1px;stroke-linecap:butt;stroke-linejoin:miter;stroke-opacity:1"
     d="M -20.225113,42.284942 L -0.59732582,270.44604 L 24.918798,274.02504 L 304.61476,253.4458 L 810.03019,291.02528 L 807.0861,136.23363 L 438.08366,53.021935 L -20.225113,42.284942 z"
     id="path2460" />
  <path
     style="fill:#6c5353;fill-rule:evenodd;stroke:none;stroke-width:1px;stroke-linecap:butt;stroke-linejoin:miter;stroke-opacity:1"
     d="M 533.68498,115.2311 L 430.63909,301.33898 L 811.41813,455.23587 L 810.4368,189.4953 L 533.68498,115.2311 z"
     id="path2454" />
  <path
     style="fill:#2b1100;fill-rule:evenodd;stroke:none;stroke-width:1px;stroke-linecap:butt;stroke-linejoin:miter;stroke-opacity:1"
     d="M 479.73743,274.65001 L 791.81923,297.91349 L 790.8378,211.1228 L 544.50917,144.91134 L 479.73743,274.65001 z"
     id="path2458" />
  <path
     style="fill:#445500;fill-rule:evenodd;stroke:none;stroke-width:1px;stroke-linecap:butt;stroke-linejoin:miter;stroke-opacity:1"
     d="M 437.38913,164.03711 L 458.20753,203.26347 L 476.25016,237.42837 L 502.62015,262.7357 L 537.3175,289.30841 L 534.54171,266.53181 L 487.35331,218.44787 L 470.69859,181.75224 L 437.38913,164.03711 z"
     id="path2417" />
  <path
     style="fill:#a0892c;fill-rule:evenodd;stroke:none;stroke-width:1px;stroke-linecap:butt;stroke-linejoin:miter;stroke-opacity:1"
     d="M 481.80173,151.38344 L 492.90489,189.34444 L 499.84436,210.85568 L 513.7233,218.44787 L 528.99013,215.91714 L 534.54171,207.05957 L 537.3175,185.54833 L 520.66277,167.8332 L 495.68068,161.50637 L 481.80173,151.38344 z"
     id="path2419" />
  <path
     style="fill:#008000;fill-rule:evenodd;stroke:none;stroke-width:1px;stroke-linecap:butt;stroke-linejoin:miter;stroke-opacity:1"
     d="M 295.82394,152.6488 L 361.05496,122.28 L 413.79493,118.4839 L 455.43176,133.66831 L 501.23226,157.71027 L 535.9296,280.45084 L 540.09329,303.22744 L 512.3354,270.32791 L 474.86227,185.54833 L 441.55281,165.30247 L 359.66707,157.71027 L 329.1334,143.79123 L 295.82394,152.6488 z"
     id="path2415" />
  <path
     style="fill:#ff2a2a;fill-rule:evenodd;stroke:none;stroke-width:1px;stroke-linecap:butt;stroke-linejoin:miter;stroke-opacity:1"
     d="M -18.262335,42.284942 L 34.732691,54.811434 L 102.44855,48.548188 L 153.9715,48.995563 L 216.28972,53.021935 L 289.89394,61.074681 L 347.79586,51.232436 L 440.04652,53.021935 L 541.12954,89.706655 L 704.04022,133.54938 L 807.0861,139.81263 L 806.10467,42.284942 L 664.78464,37.811194 L 476.3579,20.810954 L 383.12591,11.86346 L 357.60975,7.3897121 L 295.7823,19.021455 L 205.4944,24.389952 L 168.20164,18.126706 L 46.509364,22.600453 L -18.262335,25.284702 L -18.262335,42.284942 z"
     id="path2450"
     sodipodi:nodetypes="cccccccccccccccccccccc" />
  <path
     style="fill:#ff6600;fill-rule:evenodd;stroke:none;stroke-width:1px;stroke-linecap:butt;stroke-linejoin:miter;stroke-opacity:1"
     d="M -20.225113,2.0212153 L 808.06743,0.23171631 L 809.04886,44.074441 L 613.75242,40.495443 L 356.62842,10.96871 L 200.58745,36.916445 L -18.262335,26.179451 L -20.225113,2.0212153 z"
     id="path2452" />
  <path
     style="fill:#000000;fill-rule:evenodd;stroke:none;stroke-width:1px;stroke-linecap:butt;stroke-linejoin:miter;stroke-opacity:1"
     d="M 357.60975,229.28756 L 372.33059,258.8143 L 375.27478,279.39354 L 388.03286,305.34127 L 411.58617,326.81525 L 414.53035,325.02575 L 409.62341,312.49926 L 416.49311,278.49879 L 425.32568,262.3933 L 435.13957,259.70905 L 432.19538,228.39282 L 436.1209,210.49783 L 445.93479,197.97134 L 434.15814,188.1291 L 449.86041,159.49711 L 430.23262,150.54962 L 407.66065,159.49711 L 372.33059,160.39186 L 358.59118,157.70762 L 350.74004,189.02385 L 341.90758,211.39258 L 340.92615,217.65582 L 352.7028,223.91907 L 357.60975,229.28756 z"
     id="path2432" />
  <path
     style="fill:#501616;fill-rule:evenodd;stroke:none;stroke-width:1px;stroke-linecap:butt;stroke-linejoin:miter;stroke-opacity:1"
     d="M 372.33059,273.13029 L 350.74004,308.92027 L 326.20531,342.92074 L 322.27979,359.02623 L 328.16807,384.97396 L 339.94472,424.34293 L 350.74004,476.2384 L 372.33059,461.02766 L 366.44232,419.86919 L 357.60975,387.65821 L 353.68423,376.02647 L 357.60975,371.55272 L 363.49813,364.39473 L 390.97705,340.23649 L 410.60484,323.23625 L 390.97705,305.34127 L 372.33059,273.13029 z"
     id="path2434" />
  <path
     style="fill:#502d16;fill-rule:evenodd;stroke:none;stroke-width:1px;stroke-linecap:butt;stroke-linejoin:miter;stroke-opacity:1"
     d="M 474.59242,272.2728 L 789.61831,419.0117 L 791.00617,298.58663 L 474.59242,272.2728 z"
     id="path2456"
     sodipodi:nodetypes="cccc" />
  <path
     style="fill:#501616;fill-rule:evenodd;stroke:none;stroke-width:1px;stroke-linecap:butt;stroke-linejoin:miter;stroke-opacity:1"
     d="M 437.10233,258.8143 L 449.86041,275.81454 L 464.58125,303.55177 L 466.54401,313.39401 L 465.56258,335.76274 L 463.59982,366.18423 L 469.4882,391.23721 L 473.41372,414.5007 L 471.45096,449.39592 L 472.43229,469.97516 L 452.8045,461.92241 L 442.00928,432.39568 L 430.23262,393.92146 L 426.30701,361.71048 L 418.45587,340.23649 L 411.58617,325.02575 L 414.53035,282.97253 L 427.28844,260.6038 L 437.10233,258.8143 z"
     id="path2436" />
  <path
     style="fill:#a02c2c;fill-rule:evenodd;stroke:none;stroke-width:1px;stroke-linecap:butt;stroke-linejoin:miter;stroke-opacity:1"
     d="M 378.21897,146.97062 L 376.25621,157.70762 L 371.34926,161.28661 L 371.34926,174.70786 L 379.2003,189.02385 L 395.884,171.12886 L 409.62341,158.60237 L 426.30701,150.54962 L 411.58617,147.86537 L 409.62341,145.18112 L 409.62341,135.33888 L 378.21897,146.97062 z"
     id="path2438" />
  <path
     style="fill:#000080;fill-rule:evenodd;stroke:none;stroke-width:1px;stroke-linecap:butt;stroke-linejoin:miter;stroke-opacity:1"
     d="M 501.23226,303.22744 L 535.9296,301.96208 L 526.21435,281.7162 L 501.23226,286.77767 L 501.23226,303.22744 z"
     id="path2411" />
  <path
     style="fill:#a02c2c;fill-rule:evenodd;stroke:none;stroke-width:1px;stroke-linecap:butt;stroke-linejoin:miter;stroke-opacity:1"
     d="M 434.15814,186.3396 L 464.58125,212.28732 L 487.15313,228.39282 L 503.83683,272.23554 L 507.76234,278.49879 L 497.94845,277.60404 L 505.79959,292.81478 L 506.78091,306.23602 L 522.48318,305.34127 L 535.24127,301.76227 L 521.50176,279.39354 L 517.57624,275.81454 L 505.79959,210.49783 L 493.0415,205.12933 L 463.59982,170.23411 L 446.91622,157.70762 L 439.06509,174.70786 L 434.15814,186.3396 z"
     id="path2440" />
  <path
     style="fill:#c83737;fill-rule:evenodd;stroke:none;stroke-width:1px;stroke-linecap:butt;stroke-linejoin:miter;stroke-opacity:1"
     d="M 339.94472,216.76107 L 265.35919,176.49735 L 249.65692,164.86561 L 239.84303,155.02337 L 262.415,142.49687 L 289.89392,132.65463 L 330.13083,119.23339 L 352.7028,123.70713 L 358.59118,138.02313 L 346.81453,130.86513 L 316.39142,139.81263 L 287.93117,150.54962 L 282.04279,153.23387 L 263.39643,152.33912 L 286.94974,154.12862 L 339.94472,216.76107 z"
     id="path2442" />
  <path
     style="fill:#2b0000;fill-rule:evenodd;stroke:none;stroke-width:1px;stroke-linecap:butt;stroke-linejoin:miter;stroke-opacity:1"
     d="M 370.36783,148.76012 L 418.45587,136.23363 L 430.23262,123.70713 L 420.41873,89.706655 L 389.01419,78.96967 L 365.46089,84.338167 L 351.72147,118.33864 L 356.62842,137.12838 L 370.36783,148.76012 z"
     id="path2444" />
  <path
     style="fill:#ff0000;fill-rule:evenodd;stroke:none;stroke-width:1px;stroke-linecap:butt;stroke-linejoin:miter;stroke-opacity:1"
     d="M 368.40507,131.75988 L 408.64198,122.81239 L 408.64198,92.390903 L 374.29335,94.180402 L 366.44232,88.811905 L 358.59118,120.12814 L 368.40507,131.75988 z"
     id="path2446" />
  <path
     style="fill:#a02c2c;fill-rule:evenodd;stroke:none;stroke-width:1px;stroke-linecap:butt;stroke-linejoin:miter;stroke-opacity:1"
     d="M 344.85167,213.18207 L 360.55394,215.86632 L 379.2003,209.60308 L 398.82808,214.97157 L 429.25119,206.91883 L 435.13957,212.28732 L 433.17671,223.91907 L 412.5676,226.60332 L 397.84675,231.97181 L 388.03286,228.39282 L 390.97705,262.3933 L 374.29335,227.49807 L 360.55394,231.07706 L 354.66556,226.60332 L 344.85167,213.18207 z"
     id="path2462" />
  <path
     style="fill:#0000ff;fill-rule:evenodd;stroke:none;stroke-width:1px;stroke-linecap:butt;stroke-linejoin:miter;stroke-opacity:1"
     d="M 501.23226,282.98158 L 495.68068,274.12401 L 473.47438,282.98158 L 509.55961,353.8421 L 523.43856,351.31138 L 502.62015,305.75817 L 501.23226,282.98158 z"
     id="path2409" />
  <path
     style="fill:#00ff00;fill-rule:evenodd;stroke:none;stroke-width:1px;stroke-linecap:butt;stroke-linejoin:miter;stroke-opacity:1"
     d="M 294.43604,151.38344 L 324.96971,142.52587 L 361.05496,153.91417 L 349.95181,200.73274 L 326.35761,250.08204 L 337.46077,309.55427 L 308.31499,342.45381 L 286.10869,336.12697 L 290.27237,294.36988 L 295.82394,250.08204 L 294.43604,191.87517 L 287.49658,338.65771 L 269.45395,337.39235 L 255.57501,323.4733 L 268.06607,274.12401 L 262.51449,224.77471 L 268.06607,209.5903 L 262.51449,180.48688 L 280.55711,160.241 L 294.43604,151.38344 z"
     id="path2413" />
  <path
     style="fill:#000000;fill-rule:evenodd;stroke:none;stroke-width:1px;stroke-linecap:butt;stroke-linejoin:miter;stroke-opacity:1"
     d="M 263.90238,334.86161 L 263.90238,356.37284 L 263.90238,376.61871 L 279.16921,400.66067 L 297.21183,414.57972 L 301.37552,400.66067 L 286.10869,369.02651 L 279.16921,334.86161 L 263.90238,334.86161 z"
     id="path2421" />
  <path
     style="fill:#000000;fill-rule:evenodd;stroke:none;stroke-width:1px;stroke-linecap:butt;stroke-linejoin:miter;stroke-opacity:1"
     d="M 297.21183,334.86161 L 298.59973,365.23041 L 299.98762,382.94554 L 323.58182,412.04898 L 341.62444,412.04898 L 333.29708,386.74164 L 312.47867,365.23041 L 297.21183,363.96504 L 297.21183,334.86161 z"
     id="path2423" />
  <path
     style="fill:#999999;fill-rule:evenodd;stroke:none;stroke-width:1px;stroke-linecap:butt;stroke-linejoin:miter;stroke-opacity:1"
     d="M 295.82394,332.33088 L 318.03024,324.73868 L 320.80603,350.04601 L 319.41814,369.02651 L 309.70288,363.96504 L 297.21183,366.49578 L 295.82394,332.33088 z"
     id="path2425" />
</svg>
