<?xml version="1.0" encoding="UTF-8" standalone="no"?>
<!-- Created with Inkscape (http://www.inkscape.org/) -->

<svg
   xmlns:dc="http://purl.org/dc/elements/1.1/"
   xmlns:cc="http://creativecommons.org/ns#"
   xmlns:rdf="http://www.w3.org/1999/02/22-rdf-syntax-ns#"
   xmlns:svg="http://www.w3.org/2000/svg"
   xmlns="http://www.w3.org/2000/svg"
   xmlns:sodipodi="http://sodipodi.sourceforge.net/DTD/sodipodi-0.dtd"
   xmlns:inkscape="http://www.inkscape.org/namespaces/inkscape"
   id="svg2"
   sodipodi:version="0.32"
   inkscape:version="0.47 r22583"
   width="800"
   height="480"
   version="1.0"
   sodipodi:docname="imagemAa.svg"
   inkscape:output_extension="org.inkscape.output.svg.inkscape">
  <sodipodi:namedview
     inkscape:window-height="725"
     inkscape:window-width="1280"
     inkscape:pageshadow="2"
     inkscape:pageopacity="0.0"
     guidetolerance="10.0"
     gridtolerance="10.0"
     objecttolerance="10.0"
     borderopacity="1.0"
     bordercolor="#666666"
     pagecolor="#ffffff"
     id="base"
     showgrid="false"
     inkscape:zoom="0.72773075"
     inkscape:cx="145.43623"
     inkscape:cy="232.94205"
     inkscape:window-x="0"
     inkscape:window-y="24"
     inkscape:current-layer="svg2"
     showguides="true"
     inkscape:guide-bbox="true"
     inkscape:window-maximized="1" />
  <metadata
     id="metadata7">
    <rdf:RDF>
      <cc:Work
         rdf:about="">
        <dc:format>image/svg+xml</dc:format>
        <dc:type
           rdf:resource="http://purl.org/dc/dcmitype/StillImage" />
      </cc:Work>
    </rdf:RDF>
  </metadata>
  <defs
     id="defs5">
    <inkscape:perspective
       id="perspective9"
       inkscape:persp3d-origin="372.04724 : 350.78739 : 1"
       inkscape:vp_z="744.09448 : 526.18109 : 1"
       inkscape:vp_y="0 : 1000 : 0"
       inkscape:vp_x="0 : 526.18109 : 1"
       sodipodi:type="inkscape:persp3d" />
  </defs>
  <path
     sodipodi:nodetypes="ccccc"
     id="path3168"
     d="M 0.43402903,-1.9433092 L 171.42867,-1.8450427 L 172.56976,88.426223 L -0.13651622,177.35548 L 0.43402903,-1.9433092 z"
     style="fill:#000080;fill-rule:evenodd;stroke:none;stroke-width:1px;stroke-linecap:butt;stroke-linejoin:miter;stroke-opacity:1" />
  <path
     sodipodi:nodetypes="ccccc"
     id="path3170"
     d="M 171.42867,-1.9433092 L 172.00942,88.94522 L 802.59077,91.970125 L 802.70896,-1.7375578 L 171.42867,-1.9433092 z"
     style="fill:#008080;fill-rule:evenodd;stroke:none;stroke-width:1px;stroke-linecap:butt;stroke-linejoin:miter;stroke-opacity:1" />
  <path
     sodipodi:nodetypes="cccccc"
     id="path3172"
     d="M 0.099859104,176.09329 L -0.79485935,480.13495 L 802.53678,480.31159 L 802.53678,91.871859 L 171.42867,88.426223 L 0.099859104,176.09329 z"
     style="fill:#241c1c;fill-rule:evenodd;stroke:none;stroke-width:1px;stroke-linecap:butt;stroke-linejoin:miter;stroke-opacity:1" />
  <path
     sodipodi:nodetypes="ccccc"
     id="path3174"
     d="M 101.2236,223.06535 L 253.24599,130.95305 L 802.04218,145.28529 L 802.15782,321.59445 L 101.2236,223.06535 z"
     style="fill:#c83737;fill-rule:evenodd;stroke:none;stroke-width:1px;stroke-linecap:butt;stroke-linejoin:miter;stroke-opacity:1" />
  <path
     style="opacity:0.20242914;fill:#000000;fill-rule:evenodd;stroke:none;stroke-width:1px;stroke-linecap:butt;stroke-linejoin:miter;stroke-opacity:1"
     d="M 460.96449,206.48381 L 499.92147,231.73425 L 541.94233,255.09659 L 566.74741,248.23606 L 520.51637,221.63511 L 502.52934,203.55386 L 478.20147,190.02829 L 456.80541,184.41795 L 384.86593,186.6225 L 377.09223,184.76974 L 355.85068,190.24441 L 350.26303,199.03487 L 346.26062,206.68642 L 278.45253,221.73809 L 291.54222,227.44426 L 383.44876,197.95036 L 460.96449,206.48381 z"
     id="path3280"
     sodipodi:nodetypes="ccccccccccccccccc" />
  <path
     sodipodi:nodetypes="ccccc"
     id="path3176"
     d="M 101.29955,223.09453 L 120.77987,345.35918 L 802.35447,480.23324 L 802.21436,321.4624 L 101.29955,223.09453 z"
     style="fill:#550000;fill-rule:evenodd;stroke:none;stroke-width:1px;stroke-linecap:butt;stroke-linejoin:miter;stroke-opacity:1" />
  <path
     style="opacity:0.34817816;fill:#000000;fill-rule:evenodd;stroke:none;stroke-width:1px;stroke-linecap:butt;stroke-linejoin:miter;stroke-opacity:1"
     d="M 306.81686,231.5113 L 271.26528,253.66069 L 271.26528,312.13509 L 285.87552,359.0918 L 285.87552,359.0918 L 303.40779,346.68814 L 323.37512,284.66984 C 323.37512,284.66984 335.37241,255.94119 335.37241,255.94119 C 335.37241,255.94119 370.09325,249.6024 370.09325,249.6024 L 387.17314,231.5113 L 332.62826,289.9857 L 335.0633,308.1482 L 362.33574,334.72747 L 422.2377,376.81132 L 437.82195,378.58327 L 441.71801,369.72351 L 422.2377,346.68814 L 391.06921,308.1482 L 398.37432,289.9857 L 414.73957,269.86943 L 465.09439,235.0552 L 484.0877,212.46283 L 482.21731,190.02028 L 464.05895,171.51146 L 395.43738,183.38036 L 390.34424,199.88488 L 306.81686,231.5113 z"
     id="path3190"
     sodipodi:nodetypes="cccccccsccccccccccccccccccc" />
  <path
     sodipodi:nodetypes="ccccccccccccccccccccccccccc"
     id="path3178"
     d="M 299.51174,223.09453 L 263.96017,245.24392 L 263.96017,303.71832 L 278.5704,350.67503 L 278.5704,350.67503 L 296.10267,338.27137 L 298.05071,322.32381 L 300.48575,272.70917 L 302.43379,266.50734 L 362.78814,241.18563 L 379.86802,223.09453 L 325.32314,281.56893 L 327.75818,299.73143 L 355.03062,326.3107 L 414.93258,368.39455 L 430.51683,370.1665 L 434.41289,361.30674 L 414.93258,338.27137 L 377.91999,290.42869 L 401.29637,276.25307 L 457.78927,226.63843 L 476.78258,204.04606 L 474.91219,181.60351 L 456.75383,163.09469 L 388.13226,174.96359 L 383.03912,191.46811 L 299.51174,223.09453 z"
     style="fill:#800080;fill-rule:evenodd;stroke:none;stroke-width:1px;stroke-linecap:butt;stroke-linejoin:miter;stroke-opacity:1" />
  <path
     sodipodi:nodetypes="ccccccccccccccccccccccccc"
     id="path3180"
     d="m 455.84124,162.40519 c -8.47713,-12.46167 -13.11057,-26.25231 -22.79964,-38.71398 l 15.00751,16.56459 37.0126,33.66708 12.50616,-15.38222 5.02612,-9.4251 -40.90866,-38.98294 -17.53228,-31.895119 -21.42834,-19.491467 -17.53228,-3.543904 -21.42834,10.63171 -5.8441,8.859758 -27.27244,14.175613 -6.3311,-0.885976 -15.09724,20.377435 -2.43504,21.26342 -1.46103,18.1625 -48.70077,59.80337 11.20118,7.0878 55.51889,-57.58842 6.3311,-19.49147 10.71417,-25.6933 28.82149,44.09958 -1.54905,19.69068 68.18109,-13.28964 z"
     style="fill:#ffd5d5;fill-rule:evenodd;stroke:none;stroke-width:1px;stroke-linecap:butt;stroke-linejoin:miter;stroke-opacity:1" />
  <path
     sodipodi:nodetypes="ccccccccccc"
     id="path3182"
     d="M 274.67434,343.58723 L 294.15465,382.57016 L 290.25859,391.42992 L 264.93418,428.64089 L 301.94677,437.50065 L 317.53102,387.88602 L 311.68693,379.02626 L 311.68693,361.30674 L 298.05071,324.09576 L 292.20662,340.04332 L 274.67434,343.58723 z"
     style="fill:#000000;fill-rule:evenodd;stroke:none;stroke-width:1px;stroke-linecap:butt;stroke-linejoin:miter;stroke-opacity:1" />
  <path
     sodipodi:nodetypes="cccccccccccccc"
     id="path3184"
     d="M 382.79007,345.80217 L 424.67274,384.34211 L 459.7373,407.37748 L 458.27628,424.21102 L 440.25699,444.58846 L 481.16565,448.13236 L 484.38739,427.34601 L 487.00974,405.60553 L 474.83455,396.30279 L 461.68533,382.57016 L 415.9066,339.15735 L 434.41289,363.07869 L 426.62077,371.93845 L 382.79007,345.80217 z"
     style="fill:#000000;fill-rule:evenodd;stroke:none;stroke-width:1px;stroke-linecap:butt;stroke-linejoin:miter;stroke-opacity:1" />
  <path
     sodipodi:nodetypes="ccccccccccccccccccccc"
     id="path3187"
     d="M 484.0877,173.0369 L 522.07431,226.63843 L 547.39871,249.6738 L 541.55461,274.48112 L 555.19083,265.62136 L 555.19083,256.76161 L 578.56721,270.93722 L 603.89162,290.42869 L 594.15146,270.93722 L 572.72312,260.30551 L 601.94359,276.25307 L 615.57981,288.65674 L 607.78768,269.16527 L 594.15146,263.84941 L 613.63178,269.16527 L 631.16406,283.34088 L 613.63178,258.53356 L 566.87902,244.35795 L 503.56801,147.78659 L 498.00328,157.47753 L 484.0877,173.0369 z"
     style="fill:#000000;fill-rule:evenodd;stroke:none;stroke-width:1px;stroke-linecap:butt;stroke-linejoin:miter;stroke-opacity:1" />
  <path
     sodipodi:nodetypes="cccccccccccccccc"
     id="path3189"
     d="M 275.16135,207.58996 L 270.29127,210.69086 L 266.88221,207.58996 L 254.70702,208.91891 L 246.42788,217.33568 L 242.53182,217.77867 L 252.75898,221.76556 L 257.14206,219.55062 L 257.62906,221.32257 L 261.52513,219.99361 L 265.42119,218.66465 L 263.47316,225.30947 L 257.62906,228.85337 L 270.77828,227.5244 L 289.77158,215.56373 L 275.16135,207.58996 z"
     style="fill:#000000;fill-rule:evenodd;stroke:none;stroke-width:1px;stroke-linecap:butt;stroke-linejoin:miter;stroke-opacity:1" />
  <path
     sodipodi:nodetypes="cccccccccccc"
     id="path3191"
     d="M 356.00464,92.856101 L 355.03062,136.71189 L 386.19913,142.02775 L 393.50424,132.725 L 407.62747,132.28202 L 425.15975,119.43537 L 421.7507,103.48781 L 410.06251,61.403961 L 386.68613,84.439332 L 381.32905,106.58872 L 366.2318,93.742068 L 356.00464,92.856101 z"
     style="fill:#000000;fill-rule:evenodd;stroke:none;stroke-width:1px;stroke-linecap:butt;stroke-linejoin:miter;stroke-opacity:1" />
  <path
     id="path3193"
     d="M 392.04322,60.074997 L 376.94598,87.540247 L 352.59558,87.983235 L 349.67354,76.022562 L 361.36173,45.013409 L 377.43299,63.175913 L 392.04322,60.074997 z"
     style="fill:#e9afaf;fill-rule:evenodd;stroke:none;stroke-width:1px;stroke-linecap:butt;stroke-linejoin:miter;stroke-opacity:1" />
  <path
     id="path3195"
     d="M 337.01133,22.421026 L 359.41369,35.267675 L 368.17984,47.671336 L 364.77078,63.175913 L 356.00464,77.351525 L 344.31645,80.009453 L 330.19322,68.934755 L 315.09598,39.697554 L 321.42708,22.864013 L 337.01133,22.421026 z"
     style="fill:#ffd5d5;fill-rule:evenodd;stroke:none;stroke-width:1px;stroke-linecap:butt;stroke-linejoin:miter;stroke-opacity:1" />
  <path
     id="path3181"
     d="M 382.79007,220.87959 L 425.15975,185.88355 L 453.89321,170.82196 L 455.35423,162.84818 L 430.02982,162.84818 L 407.62747,147.78659 L 398.86133,148.67257 L 391.55621,174.80885 L 389.60818,174.80885 L 386.68613,184.1116 L 393.50424,189.42745 L 382.79007,220.87959 z"
     style="fill:#000000;fill-rule:evenodd;stroke:none;stroke-width:1px;stroke-linecap:butt;stroke-linejoin:miter;stroke-opacity:1" />
  <path
     sodipodi:nodetypes="ccccccccccccccccccccccc"
     id="path3183"
     d="M 316.557,35.267675 L 322.88811,22.658262 L 334.77802,22.788004 L 354.37143,32.301116 L 365.48399,43.635316 L 369.64086,67.605792 L 371.58889,87.540247 L 383.76409,109.68963 L 408.11448,128.29512 L 443.66604,138.92683 L 414.44558,105.70274 L 398.86133,86.654271 L 394.47826,71.592683 L 395.02435,59.815503 L 400.89799,56.817459 L 386.19913,49.443288 L 371.10188,29.95182 L 349.67354,17.105171 L 320.94007,15.776207 L 314.60897,26.407917 L 312.17393,37.039626 L 317.04401,42.798469 L 316.557,35.267675 z"
     style="fill:#502d16;fill-rule:evenodd;stroke:none;stroke-width:1px;stroke-linecap:butt;stroke-linejoin:miter;stroke-opacity:1" />
  <path
     sodipodi:nodetypes="cccccccccccccc"
     id="path3185"
     d="M 331.41074,70.04222 L 339.20287,86.875761 L 361.84873,92.856101 L 366.71881,105.70274 L 363.30976,131.83903 L 379.86802,147.3436 L 375.97196,130.06708 L 385.22511,120.32134 L 382.30306,107.0317 L 370.61488,85.325308 L 348.21251,79.123477 L 343.82944,79.123477 L 333.84578,71.814172 L 331.41074,70.04222 z"
     style="fill:#502d16;fill-rule:evenodd;stroke:none;stroke-width:1px;stroke-linecap:butt;stroke-linejoin:miter;stroke-opacity:1" />
  <path
     id="path2413"
     d="M 302.70011,265.6149 L 320.60717,250.73601 L 351.25578,238.8329 L 373.63961,222.85767 L 386.89773,209.38837 L 382.93751,220.97824 L 361.93115,241.65206 L 302.8723,266.55462 L 302.70011,265.6149 z"
     style="fill:#000000;fill-rule:evenodd;stroke:none;stroke-width:1px;stroke-linecap:butt;stroke-linejoin:miter;stroke-opacity:1" />
  <path
     sodipodi:nodetypes="ccccccccccccc"
     id="path3188"
     d="M 401.5333,322.78115 L 376.05018,295.84253 L 362.96425,284.56591 L 376.05018,283.31294 L 393.95724,275.16871 L 409.7981,264.51856 L 446.30096,233.19458 L 475.58225,205.04753 L 438.72488,246.35066 L 400.15583,278.92759 L 377.42764,291.45718 L 398.08963,317.14284 L 401.5333,322.78115 z"
     style="fill:#000000;fill-rule:evenodd;stroke:none;stroke-width:1px;stroke-linecap:butt;stroke-linejoin:miter;stroke-opacity:1" />
  <path
     sodipodi:nodetypes="ccccccccc"
     id="path2415"
     d="M 327.75817,37.039645 L 337.49833,33.495741 L 346.26447,33.938729 L 355.51762,38.368608 L 358.43967,41.026536 L 352.59557,45.899393 L 344.80345,49.443297 L 336.03731,47.671354 L 327.75817,37.039645 z"
     style="fill:#e9afaf;fill-rule:evenodd;stroke:none;stroke-width:1px;stroke-linecap:butt;stroke-linejoin:miter;stroke-opacity:1" />
  <path
     sodipodi:nodetypes="cccccccc"
     id="path2417"
     d="M 323.86211,41.026536 L 333.12171,50.954633 L 332.62825,54.759152 L 337.49833,57.417079 L 329.2192,56.531103 L 326.78911,56.689641 L 321.91408,48.557321 L 323.86211,41.026536 z"
     style="fill:#e9afaf;fill-rule:evenodd;stroke:none;stroke-width:1px;stroke-linecap:butt;stroke-linejoin:miter;stroke-opacity:1" />
  <path
     style="fill:#e9afaf;fill-rule:evenodd;stroke:none;stroke-width:1px;stroke-linecap:butt;stroke-linejoin:miter;stroke-opacity:1"
     d="M 287.82354,215.56374 L 340.90739,152.65947 L 357.46565,99.057941 L 357.46565,120.32136 L 343.34243,157.53233 L 287.82354,215.56374 z"
     id="path3282" />
  <path
     style="fill:#e9afaf;fill-rule:evenodd;stroke:none;stroke-width:1px;stroke-linecap:butt;stroke-linejoin:miter;stroke-opacity:1"
     d="M 410.5495,68.491776 L 436.36092,122.09331 L 487.98374,169.936 L 483.11366,173.4799 L 438.30895,130.95306 L 410.5495,68.491776 z"
     id="path3284" />
  <path
     style="opacity:0.23076926;fill:#000000;fill-rule:evenodd;stroke:none;stroke-width:1px;stroke-linecap:butt;stroke-linejoin:miter;stroke-opacity:1"
     d="M 244.47984,217.77868 L 258.60307,226.63844 L 257.62905,229.29637 L 291.2326,227.9674 L 280.51842,221.32258 L 244.47984,217.77868 z"
     id="path3286" />
  <path
     style="opacity:0.23886641;fill:#000000;fill-rule:evenodd;stroke:none;stroke-width:1px;stroke-linecap:butt;stroke-linejoin:miter;stroke-opacity:1"
     d="M 541.5546,254.54668 L 541.5546,273.59516 L 555.67783,265.17839 L 575.64514,271.38022 L 601.94357,288.65674 L 596.58648,277.13906 L 613.14475,287.77076 L 609.73569,274.48113 L 631.16404,282.01193 L 606.81365,266.95034 L 550.80775,249.23082 L 541.5546,254.54668 z"
     id="path3288" />
  <path
     style="fill:#000000;fill-rule:evenodd;stroke:none;stroke-width:1px;stroke-linecap:butt;stroke-linejoin:miter;stroke-opacity:1"
     d="M 339.93337,64.061897 L 346.50798,60.075006 L 359.65718,59.632018 L 347.96901,60.960982 L 343.58593,63.61891 L 339.93337,64.061897 z"
     id="path3200" />
  <path
     style="fill:#552200;fill-rule:evenodd;stroke:none;stroke-width:1px;stroke-linecap:butt;stroke-linejoin:miter;stroke-opacity:1"
     d="M 327.75817,37.482632 L 336.52432,33.274243 L 346.75148,33.938729 L 337.25483,34.381717 L 329.70621,37.704122 L 327.75817,37.482632 z"
     id="path3202" />
  <path
     style="fill:#552200;fill-rule:evenodd;stroke:none;stroke-width:1px;stroke-linecap:butt;stroke-linejoin:miter;stroke-opacity:1"
     d="M 323.61861,41.469524 L 321.42707,48.557321 L 322.6446,50.993759 L 321.91408,47.671345 L 323.61861,41.469524 z"
     id="path3204" />
  <path
     style="fill:#de8787;fill-rule:evenodd;stroke:none;stroke-width:1px;stroke-linecap:butt;stroke-linejoin:miter;stroke-opacity:1"
     d="M 335.5503,41.912511 L 339.20286,43.905952 L 344.80345,43.019977 L 352.83907,39.476073 L 340.90739,39.697572 L 335.5503,41.912511 z"
     id="path3206" />
  <path
     style="fill:#de8787;fill-rule:evenodd;stroke:none;stroke-width:1px;stroke-linecap:butt;stroke-linejoin:miter;stroke-opacity:1"
     d="M 326.05365,47.228357 L 324.10562,51.215248 L 323.86211,52.322723 L 327.51468,50.993759 L 327.27117,47.449856 L 326.05365,47.228357 z"
     id="path3208" />
  <path
     style="fill:#e9afaf;fill-rule:evenodd;stroke:none;stroke-width:1px;stroke-linecap:butt;stroke-linejoin:miter;stroke-opacity:1"
     d="M 334.08928,54.094674 L 340.42038,54.537662 L 337.01132,56.974091 L 334.08928,54.094674 z"
     id="path3210" />
</svg>
