<?xml version="1.0" encoding="UTF-8" standalone="no"?>
<!-- Created with Inkscape (http://www.inkscape.org/) -->

<svg
   xmlns:dc="http://purl.org/dc/elements/1.1/"
   xmlns:cc="http://creativecommons.org/ns#"
   xmlns:rdf="http://www.w3.org/1999/02/22-rdf-syntax-ns#"
   xmlns:svg="http://www.w3.org/2000/svg"
   xmlns="http://www.w3.org/2000/svg"
   xmlns:sodipodi="http://sodipodi.sourceforge.net/DTD/sodipodi-0.dtd"
   xmlns:inkscape="http://www.inkscape.org/namespaces/inkscape"
   id="svg2"
   sodipodi:version="0.32"
   inkscape:version="0.47 r22583"
   width="800"
   height="480"
   version="1.0"
   sodipodi:docname="imagem4a.svg"
   inkscape:output_extension="org.inkscape.output.svg.inkscape">
  <sodipodi:namedview
     inkscape:window-height="725"
     inkscape:window-width="1280"
     inkscape:pageshadow="2"
     inkscape:pageopacity="0.0"
     guidetolerance="10.0"
     gridtolerance="10.0"
     objecttolerance="10.0"
     borderopacity="1.0"
     bordercolor="#666666"
     pagecolor="#ffffff"
     id="base"
     showgrid="false"
     inkscape:zoom="0.51458333"
     inkscape:cx="348.99807"
     inkscape:cy="320.07075"
     inkscape:window-x="0"
     inkscape:window-y="24"
     inkscape:current-layer="svg2"
     inkscape:window-maximized="1" />
  <metadata
     id="metadata7">
    <rdf:RDF>
      <cc:Work
         rdf:about="">
        <dc:format>image/svg+xml</dc:format>
        <dc:type
           rdf:resource="http://purl.org/dc/dcmitype/StillImage" />
      </cc:Work>
    </rdf:RDF>
  </metadata>
  <defs
     id="defs5">
    <inkscape:perspective
       sodipodi:type="inkscape:persp3d"
       inkscape:vp_x="0 : 526.18109 : 1"
       inkscape:vp_y="0 : 1000 : 0"
       inkscape:vp_z="744.09448 : 526.18109 : 1"
       inkscape:persp3d-origin="372.04724 : 350.78739 : 1"
       id="perspective9" />
  </defs>
  <path
     style="fill:#de8787;fill-rule:evenodd;stroke:none;stroke-width:1px;stroke-linecap:butt;stroke-linejoin:miter;stroke-opacity:1"
     d="M 1.3446138,137.47731 366.0925,124.66818 l 263.84303,137.85339 74.02745,-18.44451 -0.86121,-95.16381 97.09084,28.02527 2.74822,302.6974 L 554.33039,476.91927 425.17445,360.03596 532.34636,289.87712 366.89737,200.01895 -0.43182076,231.4757 1.3446138,137.47731 l 0,0"
     id="path2408"
     sodipodi:nodetypes="cccccccccccccc" />
  <path
     style="fill:#aa0000;fill-rule:evenodd;stroke:none;stroke-width:1px;stroke-linecap:butt;stroke-linejoin:miter;stroke-opacity:1"
     d="M 368.8405,127.87047 L 371.58849,1.380305 L 1.0112293,2.5124828 L 0.60879432,137.47731 L 368.8405,127.87047 L 368.8405,127.87047"
     id="path2400"
     sodipodi:nodetypes="ccccc" />
  <path
     style="fill:#aa0000;fill-rule:evenodd;stroke:none;stroke-width:1px;stroke-linecap:butt;stroke-linejoin:miter;stroke-opacity:1"
     d="M -0.76520462,230.81248 368.8405,199.92182 533.23453,290.07157 385.32848,320.00742 -0.76520462,275.17547 l 0,-44.36299 0,0"
     id="path2402"
     sodipodi:nodetypes="ccccccc" />
  <path
     style="fill:#800000;fill-rule:evenodd;stroke:none;stroke-width:1px;stroke-linecap:butt;stroke-linejoin:miter;stroke-opacity:1"
     d="m 371.01936,1.574556 -3.23378,126.295914 262.2051,134.6969 0.15249,-229.208635 -73.55061,-31.21809 -185.5732,-0.566089 0,0"
     id="path2386"
     sodipodi:nodetypes="ccccccc" />
  <path
     style="fill:#000000;stroke:none;stroke-width:1px;stroke-linecap:butt;stroke-linejoin:miter;stroke-opacity:1;opacity:0.4;fill-opacity:1"
     d="M 0.81589247,137.24696 0.6643573,125.03873 182.52339,113.97291 l -0.0808,18.74454 43.00344,40.05891 214.99388,-7.60852 15.68452,-63.17769 11.13194,5.23201 -19.32118,61.60375 -448.42104996,17.48988 1.30172243,-49.06883 z"
     id="path2831"
     sodipodi:nodetypes="ccccccccccc" />
  <path
     style="fill:#d40000;fill-rule:evenodd;stroke:none;stroke-width:1px;stroke-linecap:butt;stroke-linejoin:miter;stroke-opacity:1"
     d="M -0.76520462,276.77661 L 282.27857,233.54579 L 566.1415,479.84684 L 1.9827932,481.7227 L -0.76520462,276.77661 L -0.76520462,276.77661"
     id="path2384"
     sodipodi:nodetypes="ccccc" />
  <path
     style="fill:#803300;stroke:none;stroke-width:1px;stroke-linecap:butt;stroke-linejoin:miter;stroke-opacity:1"
     d="M 655.87045,1.9433169 705.4251,149.63563 799.84282,176.8421 800.64778,18.461538 655.87045,1.9433169 z"
     id="path3617"
     sodipodi:nodetypes="ccccc" />
  <path
     style="fill:#008000;fill-rule:evenodd;stroke:none"
     d="m 629.92325,33.403131 75.7647,-6.907878 -1.34681,218.112577 -74.45483,18.01809 0.49127,-229.222786"
     id="path2388"
     sodipodi:nodetypes="ccccc" />
  <path
     style="fill:#f4d7d7;fill-rule:evenodd;stroke:none;stroke-width:1px;stroke-linecap:butt;stroke-linejoin:miter;stroke-opacity:1"
     d="M 559.89539,2.5124828 630.1838,33.317248 704.43295,26.551666 645.49282,0.10019955 559.89539,2.5124828 l 0,0"
     id="path2390"
     sodipodi:nodetypes="cccccc" />
  <path
     style="opacity:0.455;fill:#000000;fill-rule:evenodd;stroke:#000000;stroke-width:1.07939088000000005px;stroke-linecap:butt;stroke-linejoin:miter;stroke-opacity:1"
     d="m 227.02367,172.21467 212.64848,-7.51789 16.03099,-62.5127 -89.38387,-39.626225 -146.96385,-21.712534 81.38327,56.24396 -73.71502,75.125389 z"
     id="path3337"
     sodipodi:nodetypes="ccccccc" />
  <path
     style="fill:#008000;fill-rule:evenodd;stroke:none;stroke-width:1px;stroke-linecap:butt;stroke-linejoin:miter;stroke-opacity:1"
     d="M 0.27540626,124.9429 323.49853,105.45449 323.49813,89.216071 1.0945763,107.42747 0.27540626,124.9429 l 0,0"
     id="path2392"
     sodipodi:nodetypes="cccccc" />
  <path
     style="fill:#550000;fill-rule:evenodd;stroke:none;stroke-width:1px;stroke-linecap:butt;stroke-linejoin:miter;stroke-opacity:1"
     d="M 226.34705,110.62975 L 225.07069,172.70243 L 304.26255,166.29786 L 302.88855,107.05563 L 226.34705,110.62975 L 226.34705,110.62975"
     id="path2394"
     sodipodi:nodetypes="ccccc" />
  <path
     style="fill:#2b0000;fill-rule:evenodd;stroke:none;stroke-width:1px;stroke-linecap:butt;stroke-linejoin:miter;stroke-opacity:1"
     d="m 226.12561,173.09093 0.19881,-62.01025 -43.7966,2.83672 -0.0819,18.79469"
     id="path2396"
     sodipodi:nodetypes="cccc" />
  <path
     style="fill:#ff5555;fill-rule:evenodd;stroke:none;stroke-width:1px;stroke-linecap:butt;stroke-linejoin:miter;stroke-opacity:1"
     d="M 0.60879432,107.05563 322.81106,89.416214 217.70062,39.807697 0.60879432,49.414545 l 0,57.641085 0,0"
     id="path2398"
     sodipodi:nodetypes="cccccc" />
  <path
     style="fill:#800000;fill-rule:evenodd;stroke:none;stroke-width:1px;stroke-linecap:butt;stroke-linejoin:miter;stroke-opacity:1"
     d="M 444.41043,377.64852 L 579.06232,348.82798 L 803.74567,480.47673 L 566.05816,479.84684 L 444.41043,377.64852 L 444.41043,377.64852"
     id="path2404"
     sodipodi:nodetypes="ccccc" />
  <path
     style="fill:#008000;fill-rule:evenodd;stroke:none;stroke-width:1px;stroke-linecap:butt;stroke-linejoin:miter;stroke-opacity:1"
     d="M 380.7207,319.9103 L 532.34636,289.58574 L 528.55776,336.29355 L 427.35331,359.08137 L 380.7207,319.9103 L 380.7207,319.9103"
     id="path2406"
     sodipodi:nodetypes="ccccc" />
  <path
     sodipodi:nodetypes="cccccccccccccccccccccccccccccccccccscccc"
     style="fill:#000000;fill-rule:evenodd;stroke:none;stroke-width:1px;stroke-linecap:butt;stroke-linejoin:miter;stroke-opacity:1"
     d="M 137.38598,170.7232 L 137.85704,168.31337 L 138.44859,161.25007 L 138.31139,158.23201 L 138.84242,154.2752 L 139.7877,152.28641 L 139.06181,144.43965 L 136.06276,147.7537 L 137.6116,154.19217 L 136.40251,154.05065 L 134.80306,147.87181 L 137.18119,142.75387 L 140.17207,141.05561 L 140.37508,135.61741 L 143.37966,135.78113 L 143.09974,140.34292 L 142.7135,140.98693 L 145.34005,143.2492 L 146.85637,148.73064 L 148.08984,156.29698 L 146.9623,156.1291 L 145.9318,150.4585 L 144.01129,144.49029 L 144.14008,146.89292 L 143.69694,147.97355 L 143.55267,152.34632 L 144.57875,157.45322 L 144.42109,162.82912 C 144.59842,164.62718 144.59359,168.95161 144.77093,170.56096 L 146.27172,173.80824 L 144.55959,173.73956 L 142.95079,171.68687 C 142.87434,170.71556 143.04079,169.98838 142.96433,169.2038 L 142.52243,166.6526 L 142.73385,162.80947 L 141.44368,157.49159 L 140.35424,161.73517 L 139.04215,170.59815 L 139.66546,174.00248 L 137.38597,173.76592"
     id="path2410" />
  <path
     style="fill:#2b1100;fill-rule:evenodd;stroke:none;stroke-width:1px;stroke-linecap:butt;stroke-linejoin:miter;stroke-opacity:1"
     d="M 165.32697,163.03864 L 167.87733,160.70352 L 170.67058,163.32169 L 167.93806,148.53261 L 165.32697,163.03864 z"
     id="path3335" />
  <path
     style="fill:#000000;fill-rule:evenodd;stroke:none;stroke-width:1px;stroke-linecap:butt;stroke-linejoin:miter;stroke-opacity:1"
     d="M 165.14516,138.27789 C 165.4362,137.89593 166.49823,137.72626 166.63638,137.34431 L 166.42034,136.3617 L 166.17745,132.25142 L 168.55575,132.08561 L 168.68555,136.58281 L 168.22093,137.11523 L 169.87259,138.58105 L 170.89773,167.43004 L 168.92366,167.49872 L 167.83244,150.50843 L 166.86266,167.899 L 165.49224,167.94755 L 165.14516,138.27789 L 165.32733,138.34865"
     id="path2414"
     sodipodi:nodetypes="ccccccccccccccc" />
  <path
     style="fill:#552200;fill-rule:evenodd;stroke:none;stroke-width:1px;stroke-linecap:butt;stroke-linejoin:miter;stroke-opacity:1"
     d="M 168.23666,141.48017 L 169.16119,137.81308 L 172.22066,140.51826 L 174.12503,162.45176 L 175.56265,165.54793 L 171.50496,170.06624 L 167.89316,144.68245 L 164.45816,171.50156 L 158.37935,165.68737 L 160.99672,161.40585 L 163.42882,141.0866 L 165.20947,137.92407"
     id="path2412"
     sodipodi:nodetypes="cccccccccccc" />
  <path
     style="fill:#d45500;fill-rule:evenodd;stroke:none;stroke-width:1px;stroke-linecap:butt;stroke-linejoin:miter;stroke-opacity:1"
     d="M 641.1059,0.29445045 800.19251,18.289471 802.62171,2.0435194"
     id="path2418"
     sodipodi:nodetypes="ccc" />
  <path
     style="fill:#000000;stroke:#000000;stroke-width:1px;stroke-linecap:butt;stroke-linejoin:miter;stroke-opacity:1;opacity:0.4"
     d="m 415.40065,224.75826 95.1334,-23.50172 9.83953,-76.09098 106.74954,41.54562 74.98454,17.29457 1.71766,60.91149 60.43823,-15.3108 36.60988,26.99095 3.66099,224.37427 L 580.08098,348.82591 446.96357,377.97571 376.03239,317.73279 533.4413,289.55465 415.40065,224.75826 z"
     id="path3605"
     sodipodi:nodetypes="cccccccccccccc" />
  <path
     style="fill:#000000;stroke:#000000;stroke-width:1px;stroke-linecap:butt;stroke-linejoin:miter;stroke-opacity:1;opacity:0.5"
     d="m 328.42106,275.95142 129.99865,-26.34765 73.1271,39.89194 -151.62778,29.20874 -51.49797,-42.75303 z"
     id="path3607"
     sodipodi:nodetypes="ccccc" />
  <path
     style="fill:#000000;stroke:#000000;stroke-width:1px;stroke-linecap:butt;stroke-linejoin:miter;stroke-opacity:1;opacity:0.6"
     d="M 704.45345,243.88664 800.64778,219.59514 800.42213,30.808521 650.04049,-3.3625925e-6 704.45345,26.234815 l 0,217.651825 z"
     id="path3609"
     sodipodi:nodetypes="cccccc" />
</svg>
