<?xml version="1.0" encoding="UTF-8" standalone="no"?>
<!-- Created with Inkscape (http://www.inkscape.org/) -->
<svg
   xmlns:dc="http://purl.org/dc/elements/1.1/"
   xmlns:cc="http://creativecommons.org/ns#"
   xmlns:rdf="http://www.w3.org/1999/02/22-rdf-syntax-ns#"
   xmlns:svg="http://www.w3.org/2000/svg"
   xmlns="http://www.w3.org/2000/svg"
   xmlns:sodipodi="http://sodipodi.sourceforge.net/DTD/sodipodi-0.dtd"
   xmlns:inkscape="http://www.inkscape.org/namespaces/inkscape"
   width="800"
   height="480"
   id="svg2"
   sodipodi:version="0.32"
   inkscape:version="0.46"
   sodipodi:docname="watermark.svg"
   inkscape:output_extension="org.inkscape.output.svg.inkscape"
   version="1.0">
  <defs
     id="defs4">
    <inkscape:perspective
       sodipodi:type="inkscape:persp3d"
       inkscape:vp_x="0 : 526.18109 : 1"
       inkscape:vp_y="0 : 1000 : 0"
       inkscape:vp_z="744.09448 : 526.18109 : 1"
       inkscape:persp3d-origin="372.04724 : 350.78739 : 1"
       id="perspective10" />
    <inkscape:perspective
       id="perspective2390"
       inkscape:persp3d-origin="372.04724 : 350.78739 : 1"
       inkscape:vp_z="744.09448 : 526.18109 : 1"
       inkscape:vp_y="0 : 1000 : 0"
       inkscape:vp_x="0 : 526.18109 : 1"
       sodipodi:type="inkscape:persp3d" />
  </defs>
  <sodipodi:namedview
     id="base"
     pagecolor="#ffffff"
     bordercolor="#666666"
     borderopacity="1.0"
     gridtolerance="10000"
     guidetolerance="10"
     objecttolerance="10"
     inkscape:pageopacity="0.0"
     inkscape:pageshadow="2"
     inkscape:zoom="0.7"
     inkscape:cx="374.24701"
     inkscape:cy="122.57147"
     inkscape:document-units="px"
     inkscape:current-layer="layer1"
     showgrid="false"
     inkscape:window-width="1279"
     inkscape:window-height="725"
     inkscape:window-x="0"
     inkscape:window-y="25" />
  <metadata
     id="metadata7">
    <rdf:RDF>
      <cc:Work
         rdf:about="">
        <dc:format>image/svg+xml</dc:format>
        <dc:type
           rdf:resource="http://purl.org/dc/dcmitype/StillImage" />
      </cc:Work>
    </rdf:RDF>
  </metadata>
  <g
     inkscape:label="Layer 1"
     inkscape:groupmode="layer"
     id="layer1">
    <path
       style="fill:#483737;fill-rule:evenodd;stroke:#000000;stroke-width:0.26747581px;stroke-linecap:butt;stroke-linejoin:miter;stroke-opacity:1"
       d="M 681.85071,415.75493 L 673.77697,422.57265 L 674.70855,440.67488 L 681.54019,437.14848 L 684.33494,433.15188 L 682.16124,425.86397 L 683.09283,423.27794 L 681.85071,415.75493 z"
       id="path2396" />
    <path
       style="fill:#483737;fill-rule:evenodd;stroke:#000000;stroke-width:0.26747581px;stroke-linecap:butt;stroke-linejoin:miter;stroke-opacity:1"
       d="M 674.79951,440.61784 L 672.84538,456.89636 L 681.85071,454.07523 L 681.54019,436.80174 L 674.79951,440.61784 z"
       id="path2398"
       sodipodi:nodetypes="ccccc" />
    <path
       style="fill:#6c5353;fill-rule:evenodd;stroke:#000000;stroke-width:0.26747581px;stroke-linecap:butt;stroke-linejoin:miter;stroke-opacity:1"
       d="M 682.16124,450.07863 L 681.85071,453.84014 L 689.61394,450.78392 L 691.16658,446.78733 L 682.16124,450.07863 z"
       id="path2400" />
    <path
       style="fill:#483737;fill-rule:evenodd;stroke:#000000;stroke-width:0.26747581px;stroke-linecap:butt;stroke-linejoin:miter;stroke-opacity:1"
       d="M 690.54552,446.55223 L 695.20345,448.19789 L 701.41402,446.78733 L 702.34561,450.54882 L 694.5824,451.4892 L 690.23499,450.54882 L 690.54552,446.55223 z"
       id="path2402" />
    <path
       style="fill:#6c5353;fill-rule:evenodd;stroke:#000000;stroke-width:0.26747581px;stroke-linecap:butt;stroke-linejoin:miter;stroke-opacity:1"
       d="M 701.3364,446.66978 L 707.6246,446.08204 L 714.76675,449.84354 L 713.21411,454.31032 L 707.6246,451.4892 L 705.14037,450.31373 L 702.50087,450.37251 L 701.3364,446.66978 z"
       id="path2404"
       sodipodi:nodetypes="cccccccc" />
    <path
       style="fill:#483737;fill-rule:evenodd;stroke:#000000;stroke-width:0.26747581px;stroke-linecap:butt;stroke-linejoin:miter;stroke-opacity:1"
       d="M 714.76675,448.19789 L 726.56685,446.08204 L 727.1879,449.60845 L 714.45623,452.89976 L 714.76675,448.19789 z"
       id="path2406" />
    <path
       style="fill:#241c1c;fill-rule:evenodd;stroke:#000000;stroke-width:0.26747581px;stroke-linecap:butt;stroke-linejoin:miter;stroke-opacity:1"
       d="M 725.79053,437.26602 L 725.94579,446.25836 L 727.1879,449.43213 L 728.43002,447.90402 L 725.79053,437.26602 z"
       id="path2408" />
    <path
       style="fill:#241c1c;fill-rule:evenodd;stroke:#000000;stroke-width:0.26747581px;stroke-linecap:butt;stroke-linejoin:miter;stroke-opacity:1"
       d="M 725.79053,437.32479 L 728.58529,448.3742 L 728.11949,451.31288 L 732.54453,448.25666 L 725.79053,437.32479 z"
       id="path2410" />
    <path
       style="fill:#6c5353;fill-rule:evenodd;stroke:#000000;stroke-width:0.26747581px;stroke-linecap:butt;stroke-linejoin:miter;stroke-opacity:1"
       d="M 727.8866,451.43042 L 732.4669,448.3742 L 740.15248,448.78562 L 738.36694,450.90146 L 727.8866,451.43042 z"
       id="path2412" />
    <path
       style="fill:#483737;fill-rule:evenodd;stroke:#000000;stroke-width:0.26747581px;stroke-linecap:butt;stroke-linejoin:miter;stroke-opacity:1"
       d="M 699.93901,419.86908 L 704.82984,418.51729 L 703.27719,422.0437 L 700.09427,423.45426 L 693.57317,426.33416 L 699.93901,419.86908 z"
       id="path2414" />
    <path
       style="fill:#241c1c;fill-rule:evenodd;stroke:#000000;stroke-width:0.26747581px;stroke-linecap:butt;stroke-linejoin:miter;stroke-opacity:1"
       d="M 698.464,427.68595 L 703.97588,424.62972 L 707.00354,424.6885 L 701.56929,427.74472 L 698.464,427.68595 z"
       id="path2418" />
    <path
       style="fill:#241c1c;fill-rule:evenodd;stroke:#000000;stroke-width:0.26747581px;stroke-linecap:butt;stroke-linejoin:miter;stroke-opacity:1"
       d="M 701.87981,427.86226 L 707.1588,424.80605 L 712.51542,425.15869 L 712.51542,425.98152 L 709.41014,428.74387 L 703.66536,428.74387 L 702.50088,428.50878 L 701.87981,427.86226 z"
       id="path2420"
       sodipodi:nodetypes="cccccccc" />
    <path
       style="fill:#483737;fill-rule:evenodd;stroke:#000000;stroke-width:0.26747581px;stroke-linecap:butt;stroke-linejoin:miter;stroke-opacity:1"
       d="M 703.74299,428.6851 L 702.03508,429.74302 L 700.8706,430.62462 L 702.26798,431.91764 L 705.14037,430.74216 L 707.1588,430.03688 L 707.77986,429.91934 L 709.41014,428.62633 L 707.70223,428.39123 L 703.74299,428.6851 z"
       id="path2422" />
    <path
       style="fill:#483737;fill-rule:evenodd;stroke:#000000;stroke-width:0.26747581px;stroke-linecap:butt;stroke-linejoin:miter;stroke-opacity:1"
       d="M 724.93657,428.39123 L 726.72211,426.74557 L 732.85506,422.57265 L 733.08795,421.51473 L 736.19324,420.63313 L 735.57218,422.39634 L 734.79586,422.92529 L 733.55375,425.33501 L 728.89582,427.5684 L 724.93657,428.39123 z"
       id="path2424"
       sodipodi:nodetypes="cccccccccc" />
    <path
       style="fill:#241c1c;fill-rule:evenodd;stroke:#000000;stroke-width:0.26747581px;stroke-linecap:butt;stroke-linejoin:miter;stroke-opacity:1"
       d="M 714.68913,436.26687 L 715.93124,428.27368 L 718.80363,426.33416 L 718.9589,425.15869 L 717.87205,423.92445 L 718.18257,422.22001 L 717.17336,422.10247 L 716.94046,421.22087 L 718.10494,420.04539 L 720.12338,418.86993 L 724.47078,417.87078 L 727.49844,417.57692 L 728.43002,417.51814 L 727.80896,419.1638 L 722.29708,421.04455 L 720.82207,421.86737 L 720.35627,425.51133 L 719.96811,428.92019 L 719.96811,435.20895 L 717.17336,436.97215 L 714.68913,436.26687 z"
       id="path2426" />
    <path
       style="fill:#000000;fill-rule:evenodd;stroke:#000000;stroke-width:0.26747581px;stroke-linecap:butt;stroke-linejoin:miter;stroke-opacity:1"
       d="M 681.41646,415.92739 L 683.94159,417.17416 L 684.8199,417.58975 L 687.89397,417.58975 L 688.22334,418.58717 L 686.35693,420.49889 L 685.808,422.4106 L 686.02758,424.90415 L 686.6863,425.07039 L 687.45482,422.99244 L 688.99186,421.08071 L 690.74847,419.6677 L 691.29742,419.00276 L 691.07784,421.33007 L 693.27361,418.17158 L 691.18763,417.75599 L 690.63869,417.75599 L 689.10165,416.75857 L 686.02758,416.84169 L 684.38074,416.50921 L 681.41646,415.92739 z"
       id="path2448" />
    <path
       style="opacity:1;fill:#ac9393;fill-rule:evenodd;stroke:#000000;stroke-width:0.26747581px;stroke-linecap:butt;stroke-linejoin:miter;stroke-opacity:1"
       d="M 682.07107,416.33972 L 683.28148,423.07438 L 681.74445,425.56896 L 684.59758,433.05273 L 681.30255,436.95824 L 681.85973,450.173 L 690.96668,446.68203 L 695.1359,448.34024 L 698.9785,447.51114 L 700.40986,445.76566 L 701.72595,444.18745 L 702.60975,441.35831 L 703.70489,437.12552 L 703.04204,433.3 L 700.95744,430.39086 L 695.47213,429.80903 L 690.74573,431.46724 L 688.44017,433.79455 L 688.00788,432.96545 L 690.96668,421.2489 L 691.18763,419.67069 L 688.98774,421.16162 L 687.4507,423.16166 L 686.79746,425.06714 L 686.13462,424.90713 L 685.808,423.99076 L 685.48137,422.158 L 686.13462,420.66706 L 688.21923,418.33976 L 687.67165,417.67066 L 684.4919,417.50338 L 682.07107,416.33972 z"
       id="path2450"
       inkscape:label="#b"
       sodipodi:nodetypes="cccccccccccccccccccccccccccccccc" />
    <path
       style="fill:#000000;fill-rule:evenodd;stroke:#000000;stroke-width:0.26747581px;stroke-linecap:butt;stroke-linejoin:miter;stroke-opacity:1"
       d="M 690.19953,439.94855 L 692.06594,440.77973 L 694.3715,438.20307 L 694.48129,437.37189 L 694.26171,436.87317 L 693.93234,436.04199 L 692.41414,435.30819 L 694.59108,435.12769 L 696.67706,435.46017 L 697.77494,437.12253 L 697.44557,440.03167 L 696.2379,441.5278 L 693.27361,442.19274 L 692.61488,442.02651 L 690.5289,440.6135 L 690.19953,439.94855 z"
       id="path3222"
       sodipodi:nodetypes="cccccccccccccccc" />
    <path
       style="fill:#916f6f;fill-rule:evenodd;stroke:#000000;stroke-width:0.26747581px;stroke-linecap:butt;stroke-linejoin:miter;stroke-opacity:1"
       d="M 704.58182,418.58717 L 703.37415,421.99501 L 700.51965,423.49115 L 703.48394,424.40545 L 707.32654,424.73792 L 712.37681,425.07039 L 712.48659,426.06781 L 708.31464,429.64189 L 701.9469,431.88608 L 703.48394,434.13027 L 703.59372,436.70694 L 701.50775,444.2707 L 699.20219,447.34608 L 707.54612,445.93306 L 714.46279,449.7565 L 714.68237,447.9279 L 721.48925,433.88092 L 717.31729,436.79006 L 709.96146,435.21081 L 705.13077,435.87576 L 711.4985,430.80555 L 718.85433,426.40028 L 719.07391,425.23662 L 717.97602,423.65738 L 718.63475,422.24437 L 716.98793,422.07813 L 717.2075,419.169 L 716.43898,418.2547 L 710.94955,419.41835 L 709.74188,419.25211 L 708.20484,419.50147 L 707.76569,420.24953 L 707.54612,419.6677 L 706.44823,419.00276 L 706.00908,419.25211 L 704.58182,418.58717 z"
       id="path3227" />
    <path
       style="fill:#6c5353;fill-rule:evenodd;stroke:#000000;stroke-width:0.26747581px;stroke-linecap:butt;stroke-linejoin:miter;stroke-opacity:1"
       d="M 728.40593,419.00276 L 720.72073,421.82878 L 719.76479,435.23688 L 721.59904,433.46533 L 714.13342,448.09413 L 725.78432,446.08461 L 725.99058,437.12253 L 732.57789,448.59285 L 740.26308,448.92532 L 727.52762,432.30167 L 747.50912,422.99244 L 742.898,422.49372 L 736.3107,420.66512 L 733.45619,425.15351 L 729.06465,427.64706 L 724.89269,428.47824 L 726.64931,426.64964 L 727.7472,423.65738 L 728.40593,419.00276 z"
       id="path3229"
       sodipodi:nodetypes="ccccccccccccccccccc" />
    <path
       style="fill:#800000;fill-rule:evenodd;stroke:#000000;stroke-width:0.26747581px;stroke-linecap:butt;stroke-linejoin:miter;stroke-opacity:1"
       d="M 692.25342,435.38527 L 689.69156,438.14762 L 690.07973,439.67574 L 692.02053,440.55734 L 694.3495,438.14762 L 694.3495,437.3248 L 693.72844,436.14933 L 692.25342,435.38527 z"
       id="path3251" />
    <path
       style="fill:#483737;fill-rule:evenodd;stroke:#000000;stroke-width:0.26747581px;stroke-linecap:butt;stroke-linejoin:miter;stroke-opacity:1"
       d="M 700.24954,423.39548 L 703.74299,424.62972 L 698.23111,427.68595 L 693.80607,426.39293 L 700.24954,423.39548 z"
       id="path3253" />
    <path
       style="fill:#483737;fill-rule:evenodd;stroke:#000000;stroke-width:0.26747581px;stroke-linecap:butt;stroke-linejoin:miter;stroke-opacity:1"
       d="M 681.69545,450.07863 L 672.37959,457.13145 L 681.69545,454.07523 L 684.64548,449.2558 L 681.69545,450.07863 z"
       id="path3255" />
  </g>
</svg>
